<svg width="67" height="39" viewBox="0 0 67 39" fill="none" xmlns="http://www.w3.org/2000/svg">
<path d="M31.527 38.36C35.415 38.36 37.431 36.056 37.431 32.024V12.8H33.615V32.312C33.615 34.112 32.859 34.76 31.599 34.76C30.339 34.76 29.583 34.112 29.583 32.312V12.8H25.623V32.024C25.623 36.056 27.639 38.36 31.527 38.36Z" fill="white"/>
<path d="M40.2514 38H44.2114V27.2H45.5794C47.3794 27.2 48.0634 27.956 48.0634 30.296V34.904C48.0634 36.956 48.2074 37.352 48.4234 38H52.4554C52.0594 37.064 52.0234 36.164 52.0234 34.94V30.512C52.0234 27.668 51.3754 25.796 49.3954 25.184V25.112C51.1594 24.392 51.9874 22.736 51.9874 20.144V18.596C51.9874 14.708 50.2234 12.8 46.1194 12.8H40.2514V38ZM44.2114 23.6V16.4H46.0114C47.4154 16.4 48.0274 17.192 48.0274 18.992V20.936C48.0274 22.952 47.1274 23.6 45.6514 23.6H44.2114Z" fill="white"/>
<path d="M60.495 38.36C64.383 38.36 66.507 36.056 66.507 32.024V18.776C66.507 14.744 64.383 12.44 60.495 12.44C56.607 12.44 54.483 14.744 54.483 18.776V32.024C54.483 36.056 56.607 38.36 60.495 38.36ZM60.495 34.76C59.235 34.76 58.443 34.076 58.443 32.276V18.524C58.443 16.724 59.235 16.04 60.495 16.04C61.755 16.04 62.547 16.724 62.547 18.524V32.276C62.547 34.076 61.755 34.76 60.495 34.76Z" fill="white"/>
<path d="M23.4289 29.4474C22.6675 35.2269 19.5029 38.9745 12.0078 38.9745C4.51269 38.9745 1.34809 35.2269 0.586697 29.4474C0.140598 26.0612 -0.0605692 23.5451 0.0160644 19.4872C1.51466 22.4853 3.01368 24.7338 4.51269 26.2328C6.76122 28.4813 9.17891 29.0643 12.0078 29.0643C14.4014 29.0643 15.906 26.5368 15.906 23.8302V15.1443C15.906 12.4377 14.4014 9.91019 12.0078 9.91019C15.5233 9.91019 17.6508 10.8895 19.5029 12.7417C21.5876 14.8264 23.2504 17.9882 23.9999 19.4872C23.9999 21.7358 23.9999 24.7338 23.4289 29.4474Z" fill="url(#paint0_linear)"/>
<path d="M0.571131 9.52711C1.33253 3.74756 4.49713 1.71661e-05 11.9922 1.71661e-05C19.4873 1.71661e-05 22.6519 3.74756 23.4133 9.52711C23.8594 12.9133 24.0606 15.4294 23.9839 19.4872C22.4853 16.4892 20.9863 14.2407 19.4873 12.7417C17.2388 10.4931 14.8211 9.91019 11.9922 9.91019C9.59858 9.91019 8.094 12.4377 8.094 15.1443V23.8302C8.094 26.5368 9.59858 29.0643 11.9922 29.0643C8.47668 29.0643 6.34924 28.0849 4.49713 26.2328C2.41242 24.1481 0.749584 20.9863 7.43866e-05 19.4872C7.43866e-05 17.2387 7.62939e-05 14.2407 0.571131 9.52711Z" fill="url(#paint1_linear)"/>
<defs>
<linearGradient id="paint0_linear" x1="24" y1="19.4872" x2="1.51476" y2="34.4774" gradientUnits="userSpaceOnUse">
<stop stop-color="#9B9B9B"/>
<stop offset="1" stop-color="white"/>
</linearGradient>
<linearGradient id="paint1_linear" x1="4.27111e-05" y1="19.4872" x2="22.4853" y2="4.49707" gradientUnits="userSpaceOnUse">
<stop stop-color="#9B9B9B"/>
<stop offset="1" stop-color="white"/>
</linearGradient>
</defs>
</svg>
