<svg width="42" height="42" viewBox="0 0 42 42" fill="none" xmlns="http://www.w3.org/2000/svg">
<path d="M29.4936 21.9565L29.4832 21.9659L29.4733 21.9759L18.9277 32.5996C18.9275 32.5998 18.9272 32.6 18.927 32.6003C18.419 33.1074 17.4862 33.1072 16.9786 32.5996L15.6504 31.2714C15.1426 30.7636 15.1426 29.8302 15.6504 29.3223L23.6192 21.3536L23.9745 20.9983L23.6174 20.6447L15.6504 12.7558C15.6502 12.7556 15.65 12.7553 15.6497 12.7551C15.1426 12.2471 15.1428 11.3143 15.6504 10.8067L16.9786 9.47855C17.4864 8.97069 18.4198 8.97069 18.9277 9.47855L29.4746 20.0254C30.0715 20.6223 30.0433 21.4618 29.4936 21.9565ZM21 1.125C10.0207 1.125 1.125 10.0207 1.125 21C1.125 31.9793 10.0207 40.875 21 40.875C31.9793 40.875 40.875 31.9793 40.875 21C40.875 10.0207 31.9793 1.125 21 1.125Z" fill="#FF9B64" stroke="black"/>
</svg>
