<svg width="22" height="22" viewBox="0 0 22 22" fill="none" xmlns="http://www.w3.org/2000/svg">
<path d="M8.28153 15.5H6.03153V1.25C6.03153 0.875 5.65653 0.5 5.28153 0.5H3.78153C3.35965 0.5 3.03153 0.875 3.03153 1.25V15.5H0.781528C0.0784033 15.5 -0.249722 16.3438 0.219028 16.8125L3.96903 21.3125C4.10965 21.4531 4.29715 21.5 4.53153 21.5C4.71903 21.5 4.90653 21.4531 5.04715 21.3125L8.79715 16.8125C9.2659 16.3438 8.93778 15.5 8.28153 15.5Z" fill="black"/>
<path d="M20.313 6.54688H18.063V20.7969C18.063 21.1719 17.688 21.5469 17.313 21.5469H15.813C15.3911 21.5469 15.063 21.1719 15.063 20.7969V6.54688H12.813C12.1099 6.54688 11.7818 5.70312 12.2505 5.23438L16.0005 0.734375C16.1411 0.59375 16.3286 0.546875 16.563 0.546875C16.7505 0.546875 16.938 0.59375 17.0786 0.734375L20.8286 5.23438C21.2974 5.70312 20.9693 6.54688 20.313 6.54688Z" fill="black"/>
</svg>
