<svg width="82" height="82" viewBox="0 0 82 82" fill="none" xmlns="http://www.w3.org/2000/svg">
<circle cx="41" cy="41" r="41" fill="#F2F2F2"/>
<path d="M31.1094 48.2812H50.6406C51.2266 48.2812 51.8125 47.793 51.8125 47.1094V44.7656C51.8125 44.1797 51.2266 43.5938 50.6406 43.5938H31.1094C30.4258 43.5938 29.9375 44.1797 29.9375 44.7656V47.1094C29.9375 47.793 30.4258 48.2812 31.1094 48.2812ZM62.75 27.1875C62.75 24.6484 60.6016 22.5 58.0625 22.5H53.375V17.4219C53.375 16.8359 52.7891 16.25 52.2031 16.25H48.2969C47.6133 16.25 47.125 16.8359 47.125 17.4219V22.5H34.625V17.4219C34.625 16.8359 34.0391 16.25 33.4531 16.25H29.5469C28.8633 16.25 28.375 16.8359 28.375 17.4219V22.5H23.6875C21.0508 22.5 19 24.6484 19 27.1875V61.5625C19 64.1992 21.0508 66.25 23.6875 66.25H58.0625C60.6016 66.25 62.75 64.1992 62.75 61.5625V27.1875ZM58.0625 60.9766C58.0625 61.3672 57.7695 61.5625 57.4766 61.5625H24.2734C23.8828 61.5625 23.6875 61.3672 23.6875 60.9766V31.875H58.0625V60.9766Z" fill="#32B165"/>
</svg>
