<svg width="82" height="82" viewBox="0 0 82 82" fill="none" xmlns="http://www.w3.org/2000/svg">
<circle cx="41" cy="41" r="41" fill="#F2F2F2"/>
<path d="M58.0625 22.5H53.375V17.4219C53.375 16.8359 52.7891 16.25 52.2031 16.25H48.2969C47.6133 16.25 47.125 16.8359 47.125 17.4219V22.5H34.625V17.4219C34.625 16.8359 34.0391 16.25 33.4531 16.25H29.5469C28.8633 16.25 28.375 16.8359 28.375 17.4219V22.5H23.6875C21.0508 22.5 19 24.6484 19 27.1875V61.5625C19 64.1992 21.0508 66.25 23.6875 66.25H58.0625C60.6016 66.25 62.75 64.1992 62.75 61.5625V27.1875C62.75 24.6484 60.6016 22.5 58.0625 22.5ZM57.4766 61.5625H24.2734C23.8828 61.5625 23.6875 61.3672 23.6875 60.9766V31.875H58.0625V60.9766C58.0625 61.3672 57.7695 61.5625 57.4766 61.5625ZM52.3008 42.0312C52.6914 41.543 52.6914 40.8594 52.3008 40.3711L50.0547 38.125C49.6641 37.6367 48.8828 37.6367 48.3945 38.125L37.5547 48.8672L33.2578 44.5703C32.7695 44.082 32.0859 44.082 31.5977 44.5703L29.3516 46.7188C28.9609 47.207 28.9609 47.9883 29.3516 48.3789L36.6758 55.8008C37.1641 56.2891 37.9453 56.2891 38.3359 55.8008L52.3008 42.0312Z" fill="#32B165"/>
</svg>
