<svg width="82" height="82" viewBox="0 0 82 82" fill="none" xmlns="http://www.w3.org/2000/svg">
<circle cx="41" cy="41" r="41" fill="#F2F2F2"/>
<path d="M49.3711 52.8711C49.8594 52.3828 49.8594 51.6992 49.3711 51.2109L44.0977 45.9375L49.3711 40.7617C49.8594 40.2734 49.8594 39.4922 49.3711 39.1016L47.7109 37.4414C47.3203 36.9531 46.5391 36.9531 46.0508 37.4414L40.875 42.6172L35.6016 37.4414C35.1133 36.9531 34.4297 36.9531 33.9414 37.4414L32.2812 39.1016C31.793 39.4922 31.793 40.2734 32.2812 40.7617L37.5547 45.9375L32.2812 51.2109C31.793 51.6992 31.793 52.3828 32.2812 52.8711L33.9414 54.5312C34.4297 55.0195 35.1133 55.0195 35.6016 54.5312L40.875 49.2578L46.0508 54.5312C46.5391 55.0195 47.3203 55.0195 47.7109 54.5312L49.3711 52.8711ZM62.75 27.1875C62.75 24.6484 60.6016 22.5 58.0625 22.5H53.375V17.4219C53.375 16.8359 52.7891 16.25 52.2031 16.25H48.2969C47.6133 16.25 47.125 16.8359 47.125 17.4219V22.5H34.625V17.4219C34.625 16.8359 34.0391 16.25 33.4531 16.25H29.5469C28.8633 16.25 28.375 16.8359 28.375 17.4219V22.5H23.6875C21.0508 22.5 19 24.6484 19 27.1875V61.5625C19 64.1992 21.0508 66.25 23.6875 66.25H58.0625C60.6016 66.25 62.75 64.1992 62.75 61.5625V27.1875ZM58.0625 60.9766C58.0625 61.3672 57.7695 61.5625 57.4766 61.5625H24.2734C23.8828 61.5625 23.6875 61.3672 23.6875 60.9766V31.875H58.0625V60.9766Z" fill="#32B165"/>
</svg>
