<svg width="22" height="26" viewBox="0 0 22 26" fill="none" xmlns="http://www.w3.org/2000/svg">
<path d="M7.22656 14.1875C7.51953 14.1875 7.8125 13.9434 7.8125 13.6016V11.6484C7.8125 11.3555 7.51953 11.0625 7.22656 11.0625H5.27344C4.93164 11.0625 4.6875 11.3555 4.6875 11.6484V13.6016C4.6875 13.9434 4.93164 14.1875 5.27344 14.1875H7.22656ZM12.5 13.6016V11.6484C12.5 11.3555 12.207 11.0625 11.9141 11.0625H9.96094C9.61914 11.0625 9.375 11.3555 9.375 11.6484V13.6016C9.375 13.9434 9.61914 14.1875 9.96094 14.1875H11.9141C12.207 14.1875 12.5 13.9434 12.5 13.6016ZM17.1875 13.6016V11.6484C17.1875 11.3555 16.8945 11.0625 16.6016 11.0625H14.6484C14.3066 11.0625 14.0625 11.3555 14.0625 11.6484V13.6016C14.0625 13.9434 14.3066 14.1875 14.6484 14.1875H16.6016C16.8945 14.1875 17.1875 13.9434 17.1875 13.6016ZM12.5 18.2891V16.3359C12.5 16.043 12.207 15.75 11.9141 15.75H9.96094C9.61914 15.75 9.375 16.043 9.375 16.3359V18.2891C9.375 18.6309 9.61914 18.875 9.96094 18.875H11.9141C12.207 18.875 12.5 18.6309 12.5 18.2891ZM7.8125 18.2891V16.3359C7.8125 16.043 7.51953 15.75 7.22656 15.75H5.27344C4.93164 15.75 4.6875 16.043 4.6875 16.3359V18.2891C4.6875 18.6309 4.93164 18.875 5.27344 18.875H7.22656C7.51953 18.875 7.8125 18.6309 7.8125 18.2891ZM17.1875 18.2891V16.3359C17.1875 16.043 16.8945 15.75 16.6016 15.75H14.6484C14.3066 15.75 14.0625 16.043 14.0625 16.3359V18.2891C14.0625 18.6309 14.3066 18.875 14.6484 18.875H16.6016C16.8945 18.875 17.1875 18.6309 17.1875 18.2891ZM21.875 5.59375C21.875 4.32422 20.8008 3.25 19.5312 3.25H17.1875V0.710938C17.1875 0.417969 16.8945 0.125 16.6016 0.125H14.6484C14.3066 0.125 14.0625 0.417969 14.0625 0.710938V3.25H7.8125V0.710938C7.8125 0.417969 7.51953 0.125 7.22656 0.125H5.27344C4.93164 0.125 4.6875 0.417969 4.6875 0.710938V3.25H2.34375C1.02539 3.25 0 4.32422 0 5.59375V22.7812C0 24.0996 1.02539 25.125 2.34375 25.125H19.5312C20.8008 25.125 21.875 24.0996 21.875 22.7812V5.59375ZM19.5312 22.4883C19.5312 22.6836 19.3848 22.7812 19.2383 22.7812H2.63672C2.44141 22.7812 2.34375 22.6836 2.34375 22.4883V7.9375H19.5312V22.4883Z" fill="white"/>
</svg>
