<svg width="22" height="26" viewBox="0 0 22 26" fill="none" xmlns="http://www.w3.org/2000/svg">
<path d="M21.2891 7.9375C21.582 7.9375 21.875 7.69336 21.875 7.35156V5.39844C21.875 5.10547 21.582 4.8125 21.2891 4.8125H20.3125V2.46875C20.3125 1.19922 19.2383 0.125 17.9688 0.125H2.34375C1.02539 0.125 0 1.19922 0 2.46875V22.7812C0 24.0996 1.02539 25.125 2.34375 25.125H17.9688C19.2383 25.125 20.3125 24.0996 20.3125 22.7812V20.4375H21.2891C21.582 20.4375 21.875 20.1934 21.875 19.8516V17.8984C21.875 17.6055 21.582 17.3125 21.2891 17.3125H20.3125V14.1875H21.2891C21.582 14.1875 21.875 13.9434 21.875 13.6016V11.6484C21.875 11.3555 21.582 11.0625 21.2891 11.0625H20.3125V7.9375H21.2891ZM10.1562 6.375C11.8652 6.375 13.2812 7.79102 13.2812 9.5C13.2812 11.2578 11.8652 12.625 10.1562 12.625C8.39844 12.625 7.03125 11.2578 7.03125 9.5C7.03125 7.79102 8.39844 6.375 10.1562 6.375ZM15.625 17.9473C15.625 18.4844 15.1367 18.875 14.502 18.875H5.76172C5.17578 18.875 4.6875 18.4844 4.6875 17.9473V17.0195C4.6875 15.457 6.15234 14.1875 7.95898 14.1875H8.20312C8.78906 14.4805 9.42383 14.5781 10.1562 14.5781C10.8398 14.5781 11.4746 14.4805 12.0605 14.1875H12.3047C14.1113 14.1875 15.625 15.457 15.625 17.0195V17.9473Z" fill="white"/>
</svg>
