<svg width="25" height="20" viewBox="0 0 25 20" fill="none" xmlns="http://www.w3.org/2000/svg">
<path d="M24.2676 10.4551C24.707 10.0156 24.707 9.2832 24.2676 8.79492L16.0645 0.591797C15.2832 -0.140625 14.0625 0.396484 14.0625 1.42188V6.10938H7.42188C6.73828 6.10938 6.25 6.64648 6.25 7.28125V11.9688C6.25 12.6523 6.73828 13.1406 7.42188 13.1406H14.0625V17.8281C14.0625 18.9023 15.332 19.3906 16.0645 18.6582L24.2676 10.4551ZM9.375 18.4141V16.4609C9.375 16.168 9.08203 15.875 8.78906 15.875H4.6875C3.80859 15.875 3.125 15.1914 3.125 14.3125V4.9375C3.125 4.10742 3.80859 3.375 4.6875 3.375H8.78906C9.08203 3.375 9.375 3.13086 9.375 2.78906V0.835938C9.375 0.542969 9.08203 0.25 8.78906 0.25H4.6875C2.09961 0.25 0 2.34961 0 4.9375V14.3125C0 16.9004 2.09961 19 4.6875 19H8.78906C9.08203 19 9.375 18.7559 9.375 18.4141Z" fill="white"/>
</svg>
