<svg width="21" height="19" viewBox="0 0 21 19" fill="none" xmlns="http://www.w3.org/2000/svg">
<path d="M10.125 0.25C7.66406 0.25 5.69531 2.25391 5.69531 4.67969C5.69531 6.68359 8.57812 10.2695 9.66797 11.6055C9.91406 11.8516 10.3008 11.8516 10.5469 11.6055C11.6367 10.2695 14.5547 6.68359 14.5547 4.67969C14.5547 2.25391 12.5508 0.25 10.125 0.25ZM10.125 6.15625C9.28125 6.15625 8.64844 5.52344 8.64844 4.67969C8.64844 3.87109 9.28125 3.20312 10.125 3.20312C10.9336 3.20312 11.6016 3.87109 11.6016 4.67969C11.6016 5.52344 10.9336 6.15625 10.125 6.15625ZM0.703125 7.84375C0.28125 8.01953 0 8.44141 0 8.89844V17.6875C0 18.1094 0.386719 18.3906 0.738281 18.2148L5.625 16V7.80859C5.30859 7.24609 5.02734 6.71875 4.85156 6.19141L0.703125 7.84375ZM10.125 12.9062C9.59766 12.9062 9.14062 12.6953 8.82422 12.3086C8.12109 11.5 7.38281 10.5859 6.75 9.60156V16L13.5 18.25V9.60156C12.832 10.5859 12.0938 11.5 11.3906 12.3086C11.0742 12.6953 10.6172 12.9062 10.125 12.9062ZM19.4766 5.94531L14.625 8.125V18.25L19.5117 16.3164C19.9336 16.1406 20.25 15.7188 20.25 15.2617V6.47266C20.25 6.05078 19.8281 5.76953 19.4766 5.94531Z" fill="black"/>
</svg>
