<svg width="14" height="24" viewBox="0 0 14 24" fill="none" xmlns="http://www.w3.org/2000/svg">
<path d="M6.15527 17.2036C7.00977 17.2036 7.40039 16.6177 7.40039 15.8364V15.4214C7.4248 13.8101 7.99854 13.1387 9.95166 11.7959C12.0513 10.3799 13.3818 8.74414 13.3818 6.38818C13.3818 2.72607 10.4033 0.626465 6.69238 0.626465C3.93359 0.626465 1.5166 1.93262 0.479004 4.28857C0.222656 4.8623 0.112793 5.42383 0.112793 5.8877C0.112793 6.5835 0.515625 7.07178 1.26025 7.07178C1.88281 7.07178 2.29785 6.70557 2.48096 6.10742C3.10352 3.78809 4.6416 2.90918 6.60693 2.90918C8.9873 2.90918 10.855 4.25195 10.855 6.37598C10.855 8.12158 9.76855 9.09814 8.20605 10.1968C6.28955 11.5273 4.88574 12.9556 4.88574 15.104V15.873C4.88574 16.6543 5.31299 17.2036 6.15527 17.2036ZM6.15527 23.8809C7.13184 23.8809 7.90088 23.0996 7.90088 22.1475C7.90088 21.1831 7.13184 20.4141 6.15527 20.4141C5.20312 20.4141 4.42188 21.1831 4.42188 22.1475C4.42188 23.0996 5.20312 23.8809 6.15527 23.8809Z" fill="white"/>
</svg>
