<svg width="23" height="23" viewBox="0 0 23 23" fill="none" xmlns="http://www.w3.org/2000/svg">
<path d="M9.70703 18.2305C11.6641 18.2305 13.4688 17.5977 14.9453 16.543L20.5 22.0977C20.7578 22.3555 21.0977 22.4844 21.4609 22.4844C22.2227 22.4844 22.7617 21.8984 22.7617 21.1484C22.7617 20.7969 22.6445 20.4688 22.3867 20.2109L16.8672 14.6797C18.0273 13.1562 18.7188 11.2695 18.7188 9.21875C18.7188 4.26172 14.6641 0.207031 9.70703 0.207031C4.75 0.207031 0.695312 4.26172 0.695312 9.21875C0.695312 14.1758 4.75 18.2305 9.70703 18.2305ZM9.70703 16.2852C5.83984 16.2852 2.64062 13.0859 2.64062 9.21875C2.64062 5.35156 5.83984 2.15234 9.70703 2.15234C13.5742 2.15234 16.7734 5.35156 16.7734 9.21875C16.7734 13.0859 13.5742 16.2852 9.70703 16.2852Z" fill="black"/>
</svg>
