<svg width="24" height="26" viewBox="0 0 24 26" fill="none" xmlns="http://www.w3.org/2000/svg">
<path d="M2.43115 21.3286H14.7236C14.626 22.9766 13.5762 24.0264 12.0991 24.0264C10.6343 24.0264 9.57227 22.9766 9.48682 21.3286H7.58252C7.68018 23.6724 9.52344 25.7354 12.0991 25.7354C14.687 25.7354 16.5303 23.6846 16.6279 21.3286H21.7793C22.9268 21.3286 23.6226 20.7305 23.6226 19.8516C23.6226 18.6309 22.3774 17.5322 21.3276 16.4458C20.522 15.6035 20.3022 13.8701 20.2046 12.4663C20.1191 7.65674 18.874 4.54395 15.627 3.37207C15.2119 1.78516 13.9058 0.515625 12.0991 0.515625C10.3047 0.515625 8.98633 1.78516 8.5835 3.37207C5.33643 4.54395 4.09131 7.65674 4.00586 12.4663C3.9082 13.8701 3.68848 15.6035 2.88281 16.4458C1.8208 17.5322 0.587891 18.6309 0.587891 19.8516C0.587891 20.7305 1.27148 21.3286 2.43115 21.3286ZM2.95605 19.4854V19.3389C3.17578 18.9727 3.9082 18.2646 4.54297 17.5444C5.42188 16.5679 5.83691 15.0054 5.94678 12.6128C6.04443 7.29053 7.63135 5.58154 9.71875 5.02002C10.0239 4.94678 10.1948 4.78809 10.207 4.48291C10.2437 3.20117 10.9761 2.31006 12.0991 2.31006C13.2344 2.31006 13.9546 3.20117 14.0034 4.48291C14.0156 4.78809 14.1743 4.94678 14.4795 5.02002C16.5791 5.58154 18.166 7.29053 18.2637 12.6128C18.3735 15.0054 18.7886 16.5679 19.6553 17.5444C20.3022 18.2646 21.0225 18.9727 21.2422 19.3389V19.4854H2.95605Z" fill="black"/>
</svg>
