<svg width="28" height="22" viewBox="0 0 28 22" fill="none" xmlns="http://www.w3.org/2000/svg">
<path d="M3.9458 21.7212H23.5991C25.7964 21.7212 27.0659 20.4517 27.0659 17.937V4.46045C27.0659 1.95801 25.7842 0.688477 23.2329 0.688477H3.57959C1.38232 0.688477 0.112793 1.9458 0.112793 4.46045V17.937C0.112793 20.4639 1.39453 21.7212 3.9458 21.7212ZM12.1367 11.8213L2.92041 2.72705C3.18896 2.61719 3.50635 2.55615 3.87256 2.55615H23.3062C23.6846 2.55615 24.0142 2.61719 24.2827 2.75146L15.0908 11.8213C14.5659 12.3462 14.0898 12.5781 13.6138 12.5781C13.1255 12.5781 12.6494 12.3462 12.1367 11.8213ZM1.98047 17.937V4.46045C1.98047 4.375 1.98047 4.41162 1.98047 4.33838L8.99951 11.2231L1.99268 18.1445C1.98047 18.0835 1.98047 18.0103 1.98047 17.937ZM25.1982 4.47266V17.9492C25.1982 17.998 25.1982 18.0591 25.1982 18.1079L18.228 11.2231L25.1982 4.375C25.1982 4.47266 25.1982 4.47266 25.1982 4.47266ZM3.87256 19.8535C3.53076 19.8535 3.22559 19.8047 2.98145 19.6948L10.2812 12.4805L11.0747 13.2617C11.9292 14.104 12.7471 14.458 13.6138 14.458C14.4683 14.458 15.2983 14.104 16.1528 13.2617L16.9463 12.4805L24.2339 19.6826C23.9653 19.8047 23.6602 19.8535 23.3062 19.8535H3.87256Z" fill="white"/>
</svg>
