<svg width="28" height="28" viewBox="0 0 28 28" fill="none" xmlns="http://www.w3.org/2000/svg">
<path d="M13.9302 26.1372C14.2476 26.1372 14.5527 26.1006 14.8823 26.0762L15.5781 27.4189C15.7124 27.6875 15.981 27.834 16.3228 27.7852C16.6279 27.7241 16.8354 27.5044 16.8843 27.1748L17.0918 25.6978C17.7021 25.5391 18.3003 25.3071 18.874 25.0508L19.9727 26.0396C20.2046 26.2593 20.4976 26.3081 20.8027 26.1372C21.0713 25.9907 21.1812 25.6978 21.1201 25.3804L20.8149 23.9155C21.3276 23.5615 21.8281 23.1587 22.2798 22.707L23.6348 23.2808C23.9399 23.4028 24.2329 23.3418 24.4648 23.061C24.6724 22.8413 24.6968 22.5239 24.5137 22.2554L23.7202 20.9858C24.0864 20.4731 24.3794 19.9238 24.6602 19.3379L26.1616 19.4111C26.479 19.4233 26.7354 19.2524 26.8452 18.9473C26.9429 18.6421 26.8574 18.3491 26.6011 18.1538L25.4292 17.2261C25.5879 16.6401 25.71 16.0054 25.771 15.3462L27.1748 14.9067C27.4922 14.7969 27.6753 14.5649 27.6753 14.2354C27.6753 13.918 27.4922 13.686 27.1748 13.5762L25.771 13.1245C25.71 12.4653 25.5879 11.855 25.4292 11.2568L26.6011 10.3169C26.8452 10.1338 26.9429 9.85303 26.8452 9.54785C26.7354 9.24268 26.479 9.07178 26.1616 9.08398L24.6602 9.14502C24.3794 8.55908 24.0864 8.00977 23.7202 7.49707L24.5137 6.22754C24.6846 5.97119 24.6602 5.65381 24.4648 5.43408C24.2329 5.15332 23.9399 5.08008 23.6348 5.21436L22.2798 5.76367C21.8281 5.33643 21.3276 4.92139 20.8149 4.56738L21.1201 3.11475C21.1812 2.78516 21.0713 2.49219 20.8027 2.3457C20.4976 2.18701 20.2046 2.21143 19.9727 2.45557L18.874 3.41992C18.3003 3.16357 17.7021 2.95605 17.0918 2.78516L16.8843 1.30811C16.8354 0.990723 16.6157 0.758789 16.3105 0.709961C15.981 0.661133 15.7124 0.79541 15.5781 1.06396L14.8823 2.40674C14.5527 2.38232 14.2476 2.35791 13.9302 2.35791C13.6006 2.35791 13.3076 2.38232 12.978 2.40674L12.27 1.06396C12.1357 0.79541 11.8672 0.661133 11.5376 0.709961C11.2324 0.758789 11.0127 0.990723 10.9761 1.30811L10.7563 2.77295C10.146 2.95605 9.56006 3.16357 8.97412 3.41992L7.87549 2.45557C7.64355 2.21143 7.35059 2.18701 7.04541 2.3457C6.77686 2.49219 6.66699 2.78516 6.72803 3.11475L7.0332 4.56738C6.53271 4.92139 6.02002 5.33643 5.56836 5.76367L4.21338 5.21436C3.9082 5.08008 3.62744 5.15332 3.39551 5.43408C3.18799 5.65381 3.16357 5.97119 3.33447 6.21533L4.12793 7.49707C3.77393 8.00977 3.46875 8.55908 3.18799 9.14502L1.69873 9.08398C1.38135 9.07178 1.11279 9.24268 1.00293 9.54785C0.905273 9.85303 0.990723 10.1338 1.24707 10.3169L2.41895 11.2568C2.26025 11.855 2.13818 12.4653 2.10156 13.1245L0.67334 13.5762C0.355957 13.6738 0.185059 13.9058 0.185059 14.2354C0.185059 14.5649 0.355957 14.7969 0.67334 14.9067L2.10156 15.3584C2.13818 16.0054 2.26025 16.6401 2.41895 17.2261L1.24707 18.1538C1.00293 18.3491 0.91748 18.6421 1.00293 18.9473C1.11279 19.2524 1.38135 19.4233 1.69873 19.4111L3.18799 19.3379C3.46875 19.9238 3.77393 20.4731 4.12793 20.9858L3.33447 22.2554C3.16357 22.5239 3.18799 22.8413 3.39551 23.061C3.62744 23.3418 3.9082 23.4028 4.21338 23.2808L5.56836 22.707C6.02002 23.1587 6.53271 23.5615 7.0332 23.9155L6.72803 25.3804C6.66699 25.6978 6.77686 25.9907 7.04541 26.1372C7.35059 26.3081 7.64355 26.2593 7.87549 26.0396L8.97412 25.0508C9.56006 25.3071 10.146 25.5391 10.7563 25.6978L10.9761 27.1748C11.0127 27.5044 11.2324 27.7241 11.5376 27.7852C11.8672 27.834 12.1357 27.6875 12.27 27.4189L12.978 26.0762C13.2954 26.1006 13.6006 26.1372 13.9302 26.1372ZM16.9941 13.4663C16.4326 11.9282 15.2974 11.0859 13.9058 11.0859C13.686 11.0859 13.4541 11.1104 13.0513 11.1958L9.54785 5.21436C10.8662 4.56738 12.3433 4.21338 13.9302 4.21338C19.2524 4.21338 23.4272 8.25391 23.8179 13.4663H16.9941ZM4.01807 14.2476C4.01807 10.854 5.62939 7.86328 8.14404 6.05664L11.6841 12.0747C11.0127 12.7583 10.7075 13.5029 10.7075 14.2964C10.7075 15.0654 11.0005 15.7734 11.6719 16.4814L8.0708 22.3896C5.59277 20.5708 4.01807 17.6167 4.01807 14.2476ZM12.4409 14.2842C12.4409 13.4541 13.1367 12.8071 13.9302 12.8071C14.748 12.8071 15.4316 13.4541 15.4316 14.2842C15.4316 15.1021 14.748 15.7734 13.9302 15.7734C13.1367 15.7734 12.4409 15.1021 12.4409 14.2842ZM13.9302 24.2817C12.3066 24.2817 10.793 23.9033 9.4624 23.2441L13.0513 17.3726C13.4297 17.4702 13.686 17.4946 13.9058 17.4946C15.3096 17.4946 16.4448 16.6279 16.9941 15.0532H23.8057C23.415 20.2412 19.2524 24.2817 13.9302 24.2817Z" fill="white"/>
</svg>
