<svg width="30" height="27" viewBox="0 0 30 27" fill="none" xmlns="http://www.w3.org/2000/svg">
<path d="M6.72803 26.0396H22.7681C24.5015 26.0396 25.5146 25.063 25.5146 23.3418V12.1968L27.0894 13.6372C27.3335 13.8813 27.6143 14.0522 27.9683 14.0522C28.542 14.0522 29.0059 13.6982 29.0059 13.1123C29.0059 12.7461 28.8594 12.5142 28.6396 12.3066L24.4038 8.43701V1.24707C24.4038 0.709961 24.0498 0.368164 23.5249 0.368164H21.9258C21.3887 0.368164 21.0347 0.709961 21.0347 1.24707V5.37305L16.2129 0.978516C15.7856 0.587891 15.2729 0.368164 14.748 0.368164C14.2231 0.368164 13.7104 0.587891 13.2832 0.978516L0.856445 12.3066C0.636719 12.5142 0.490234 12.7461 0.490234 13.1123C0.490234 13.6982 0.954102 14.0522 1.52783 14.0522C1.86963 14.0522 2.1626 13.8813 2.40674 13.6372L3.98145 12.209V23.3418C3.98145 25.063 4.99463 26.0396 6.72803 26.0396ZM18.2637 15.9688C18.2637 15.4072 17.8975 15.0532 17.3359 15.0532H12.1602C11.5986 15.0532 11.2202 15.4072 11.2202 15.9688V24.0742H7.15527C6.37402 24.0742 5.94678 23.647 5.94678 22.8535V10.4146L14.3208 2.78516C14.4429 2.66309 14.5894 2.58984 14.748 2.58984C14.9067 2.58984 15.0532 2.65088 15.1875 2.78516L23.5493 10.4146V22.8535C23.5493 23.647 23.1221 24.0742 22.3408 24.0742H18.2637V15.9688Z" fill="white"/>
</svg>
