<svg width="505" height="424" viewBox="0 0 505 424" fill="none" xmlns="http://www.w3.org/2000/svg">
<path d="M134.505 257.763C133.145 257.763 131.772 257.742 130.424 257.7L130.454 256.72C132.39 256.781 134.366 256.798 136.311 256.771L136.324 257.751C135.719 257.759 135.112 257.763 134.505 257.763ZM142.221 257.536L142.164 256.558C144.102 256.443 146.066 256.283 148 256.08L148.102 257.055C146.153 257.259 144.175 257.421 142.221 257.536ZM124.532 257.383C122.577 257.233 120.601 257.037 118.66 256.799L118.779 255.827C120.706 256.062 122.666 256.258 124.606 256.406L124.532 257.383ZM153.955 256.306L153.808 255.337C155.734 255.045 157.675 254.705 159.576 254.328L159.767 255.289C157.851 255.669 155.896 256.011 153.955 256.306ZM112.821 255.947C110.89 255.62 108.94 255.244 107.027 254.828L107.235 253.87C109.134 254.283 111.068 254.656 112.985 254.98L112.821 255.947ZM165.527 254.006L165.291 253.054C167.182 252.587 169.084 252.07 170.943 251.519L171.221 252.458C169.348 253.014 167.432 253.535 165.527 254.006ZM101.291 253.444C99.3965 252.94 97.4901 252.386 95.6246 251.796L95.9198 250.861C97.7712 251.447 99.663 251.997 101.543 252.496L101.291 253.444ZM176.839 250.65L176.517 249.724C178.352 249.087 180.197 248.397 182.003 247.674L182.367 248.585C180.548 249.312 178.688 250.007 176.839 250.65H176.839ZM90.0257 249.882C88.1858 249.206 86.3344 248.476 84.5234 247.714L84.9039 246.81C86.701 247.567 88.538 248.291 90.364 248.963L90.0257 249.882ZM187.781 246.272L187.375 245.38C189.138 244.579 190.909 243.724 192.64 242.839L193.086 243.712C191.341 244.604 189.557 245.465 187.781 246.272H187.781ZM198.268 240.911L197.783 240.06C199.472 239.096 201.159 238.083 202.796 237.047L203.319 237.875C201.671 238.919 199.971 239.94 198.268 240.911H198.268ZM208.228 234.611L207.667 233.808C209.258 232.696 210.846 231.532 212.386 230.348L212.984 231.125C211.432 232.318 209.831 233.491 208.228 234.611ZM58.8431 233.23C57.2612 232.081 55.6809 230.878 54.1458 229.652L54.7574 228.887C56.2808 230.103 57.8491 231.297 59.4188 232.437L58.8431 233.23ZM217.577 227.426L216.945 226.676C218.428 225.425 219.904 224.121 221.333 222.8L221.998 223.52C220.559 224.85 219.071 226.165 217.577 227.426H217.577ZM49.6175 225.864C48.1442 224.574 46.6805 223.232 45.2673 221.876L45.9459 221.168C47.3486 222.515 48.8011 223.847 50.2631 225.127L49.6175 225.864ZM226.238 219.415L225.54 218.727C226.907 217.341 228.26 215.908 229.559 214.466L230.287 215.121C228.978 216.575 227.615 218.019 226.238 219.415ZM41.104 217.694C39.7523 216.273 38.4173 214.804 37.1361 213.328L37.8765 212.685C39.1479 214.15 40.4726 215.608 41.8143 217.018L41.104 217.694ZM234.137 210.647L233.38 210.025C234.616 208.522 235.832 206.971 236.996 205.414L237.781 206.001C236.608 207.57 235.382 209.133 234.137 210.647L234.137 210.647ZM33.3719 208.787C32.158 207.253 30.9627 205.669 29.8192 204.08L30.6145 203.508C31.7495 205.084 32.9356 206.656 34.1405 208.179L33.3719 208.787ZM241.208 201.192L240.398 200.642C241.491 199.033 242.561 197.376 243.579 195.718L244.415 196.231C243.388 197.902 242.31 199.571 241.208 201.192L241.208 201.192ZM26.4859 199.218C25.4179 197.581 24.3727 195.896 23.379 194.21L24.2232 193.712C25.2095 195.385 26.2468 197.058 27.3067 198.682L26.4859 199.218ZM247.391 191.127L246.533 190.653C247.474 188.95 248.388 187.202 249.251 185.455L250.13 185.89C249.261 187.649 248.339 189.411 247.391 191.127ZM252.625 180.532L251.727 180.138C252.508 178.355 253.258 176.528 253.956 174.709L254.871 175.061C254.168 176.894 253.412 178.734 252.625 180.532ZM15.4812 178.417C14.7298 176.614 14.0103 174.769 13.3427 172.933L14.2639 172.598C14.9263 174.42 15.6403 176.25 16.3857 178.04L15.4812 178.417ZM256.863 169.49L255.933 169.182C256.545 167.339 257.122 165.455 257.648 163.583L258.592 163.848C258.061 165.735 257.479 167.633 256.863 169.49ZM11.4547 167.342C10.8715 165.475 10.3235 163.567 9.82605 161.671L10.7741 161.422C11.2678 163.303 11.8117 165.197 12.3903 167.051L11.4547 167.342ZM260.058 158.132L259.103 157.91C259.542 156.021 259.943 154.092 260.296 152.177L261.26 152.354C260.904 154.284 260.5 156.228 260.058 158.132V158.132ZM8.46116 155.93C8.05245 154.016 7.68251 152.065 7.36186 150.132L8.3286 149.972C8.64709 151.89 9.01416 153.826 9.41975 155.725L8.46116 155.93ZM262.194 146.529L261.222 146.396C261.486 144.476 261.708 142.519 261.884 140.578L262.86 140.666C262.683 142.622 262.459 144.595 262.194 146.529V146.529ZM6.52961 144.291C6.29846 142.351 6.1087 140.375 5.96537 138.418L6.94311 138.347C7.085 140.289 7.27357 142.25 7.50305 144.175L6.52961 144.291ZM263.259 134.78L262.28 134.736C262.367 132.794 262.412 130.824 262.412 128.882H263.392C263.392 130.839 263.348 132.824 263.259 134.78ZM5.66841 132.525C5.63491 131.323 5.61793 130.097 5.61768 128.882C5.61768 128.127 5.62414 127.375 5.63706 126.623L6.61719 126.641C6.60427 127.386 6.59781 128.133 6.59781 128.882C6.59805 130.088 6.61504 131.305 6.64806 132.498L5.66841 132.525ZM6.84978 120.789L5.87157 120.728C5.99384 118.77 6.16278 116.792 6.37311 114.849L7.3475 114.955C7.1386 116.883 6.97132 118.846 6.84976 120.789H6.84978ZM261.779 114.81C261.583 112.878 261.314 111.936 261.03 110.012L261.999 109.869C262.286 111.807 262.531 113.287 262.729 115.234L261.779 114.81ZM8.11058 109.149L7.14194 109C7.44224 107.061 7.79113 105.107 8.17902 103.191L9.13955 103.385C8.75475 105.286 8.4085 107.226 8.11058 109.149ZM260.041 104.241C259.667 102.33 259.245 100.405 258.787 98.5214L259.739 98.2898C260.201 100.188 260.626 102.127 261.003 104.053L260.041 104.241ZM10.4322 97.6741L9.48148 97.4358C9.95742 95.5376 10.4846 93.6236 11.0483 91.7467L11.9868 92.0285C11.4276 93.8911 10.9045 95.7905 10.4322 97.6741ZM257.271 92.8651C256.724 90.9989 256.127 89.1218 255.495 87.2851L256.422 86.9664C257.059 88.8172 257.661 90.7092 258.211 92.5894L257.271 92.8651ZM13.8062 86.4454L12.8815 86.1205C13.5329 84.2678 14.2362 82.4062 14.9717 80.5874L15.8806 80.9549C15.1505 82.7596 14.4525 84.6071 13.8062 86.4454ZM253.464 81.7927C252.749 79.989 251.984 78.1788 251.188 76.4122L252.082 76.0098C252.884 77.79 253.655 79.614 254.376 81.4313L253.464 81.7927ZM18.2053 75.5678L17.3146 75.1586C18.1332 73.376 19.0045 71.5883 19.9042 69.8454L20.7752 70.2948C19.8822 72.0246 19.0176 73.7986 18.2053 75.5678ZM248.668 71.1399C247.79 69.4097 246.861 67.6759 245.905 65.9873L246.758 65.5044C247.721 67.2062 248.658 68.9532 249.541 70.6968L248.668 71.1399ZM23.5847 65.1469L22.7353 64.6579C23.713 62.9602 24.7441 61.2608 25.8001 59.6074L26.6261 60.1348C25.5783 61.7757 24.5548 63.4622 23.5847 65.1469ZM242.909 60.9644C241.874 59.3157 240.789 57.6733 239.686 56.0826L240.491 55.5241C241.603 57.127 242.696 58.7819 243.739 60.4432L242.909 60.9644ZM29.8934 55.2683L29.0922 54.7036C30.2221 53.1012 31.4035 51.504 32.6043 49.9563L33.3786 50.5569C32.1872 52.0931 31.0144 53.6781 29.8934 55.2683ZM236.242 51.3518C235.061 49.8048 233.831 48.267 232.585 46.7811L233.337 46.1515C234.592 47.6489 235.831 49.1983 237.021 50.7569L236.242 51.3518ZM37.0744 46.0108L36.3283 45.3753C37.5963 43.886 38.9179 42.4037 40.2563 40.9695L40.9727 41.638C39.6446 43.0615 38.3331 44.5328 37.0744 46.0108ZM228.724 42.3805C227.408 40.9474 226.042 39.5271 224.665 38.1594L225.356 37.464C226.743 38.8425 228.119 40.2734 229.446 41.7172L228.724 42.3805ZM45.0648 37.4487L44.3795 36.7481C45.781 35.377 47.2313 34.0215 48.6898 32.7193L49.3426 33.4506C47.8951 34.7427 46.4558 36.0879 45.0648 37.4487ZM220.419 34.1263C218.976 32.8177 217.486 31.527 215.991 30.2902L216.616 29.535C218.122 30.7812 219.624 32.0817 221.077 33.4003L220.419 34.1263ZM53.797 29.6513L53.1782 28.8913C54.6941 27.6569 56.2607 26.4394 57.8348 25.2727L58.4186 26.06C56.8563 27.2181 55.3014 28.4262 53.797 29.6513ZM63.1975 22.6842L62.6505 21.8711C64.2728 20.7795 65.9431 19.7107 67.615 18.6935L68.1242 19.531C66.4652 20.5403 64.8077 21.6012 63.1975 22.6842ZM73.1888 16.607L72.7183 15.747C74.4347 14.8078 76.1947 13.8967 77.9492 13.0384L78.3799 13.9189C76.6389 14.7705 74.8923 15.6747 73.1888 16.607ZM191.476 14.3362C189.732 13.4674 187.945 12.628 186.166 11.8415L186.562 10.9452C188.356 11.7376 190.156 12.5835 191.913 13.459L191.476 14.3362ZM83.6869 11.4723L83.2973 10.5731C85.091 9.79563 86.9259 9.05004 88.7507 8.35685L89.0987 9.27328C87.2877 9.96099 85.467 10.7008 83.6869 11.4723ZM180.745 9.59321C178.93 8.88951 177.073 8.21807 175.224 7.59786L175.536 6.66849C177.399 7.29373 179.271 7.97017 181.099 8.67963L180.745 9.59321ZM94.6196 7.32103L94.3142 6.38975C96.1769 5.77911 98.0773 5.20412 99.9624 4.6813L100.224 5.62549C98.3537 6.14449 96.4678 6.71493 94.6196 7.32103ZM169.631 5.86381C167.761 5.33094 165.855 4.83467 163.964 4.3889L164.189 3.43513C166.094 3.88425 168.015 4.38434 169.9 4.92106L169.631 5.86381ZM105.902 4.19006L105.684 3.23461C107.593 2.7984 109.538 2.40096 111.465 2.05353L111.639 3.01783C109.727 3.36287 107.797 3.7572 105.902 4.19006ZM158.235 3.17718C156.326 2.81899 154.382 2.50026 152.456 2.22988L152.592 1.25936C154.533 1.5319 156.492 1.85301 158.416 2.21385L158.235 3.17718ZM117.424 2.11073L117.295 1.13925C119.235 0.880352 121.208 0.662606 123.159 0.492722L123.244 1.46898C121.308 1.6379 119.35 1.85373 117.424 2.11073ZM146.64 1.54842C144.71 1.36657 142.745 1.22635 140.799 1.13231L140.847 0.153205C142.807 0.2482 144.787 0.389377 146.732 0.572683L146.64 1.54842ZM129.089 1.09307L129.048 0.113962C130.849 0.0388282 132.685 0.000541278 134.505 6.10352e-05L134.948 0.000781677L134.946 0.98087L134.505 0.980149C132.699 0.9806 130.876 1.01865 129.089 1.09306V1.09307Z" fill="#3F3D56"/>
<path d="M292.197 46.1652V363.812C292.193 367.596 290.688 371.223 288.011 373.898C285.334 376.573 281.705 378.076 277.921 378.077H148.961C147.086 378.08 145.229 377.714 143.496 376.998C141.763 376.282 140.189 375.232 138.862 373.907C137.536 372.582 136.485 371.008 135.768 369.275C135.051 367.543 134.683 365.686 134.685 363.812V46.1652C134.685 44.2905 135.054 42.4342 135.771 40.7022C136.489 38.9702 137.54 37.3965 138.866 36.0709C140.192 34.7453 141.765 33.6938 143.497 32.9765C145.23 32.2592 147.086 31.89 148.961 31.8902H168.259V34.3649C168.259 37.4821 169.497 40.4718 171.701 42.6765C173.905 44.8811 176.894 46.1202 180.011 46.1211H245.602C248.111 46.1264 250.555 45.3221 252.57 43.8277C252.978 43.5313 253.364 43.2071 253.727 42.8574C254.875 41.7612 255.788 40.4432 256.412 38.9833C257.035 37.5235 257.355 35.9523 257.353 34.3649V31.8902H277.921C279.796 31.8896 281.653 32.2585 283.385 32.9756C285.117 33.6928 286.691 34.7443 288.017 36.07C289.343 37.3956 290.394 38.9695 291.111 40.7017C291.829 42.4339 292.198 44.2904 292.197 46.1652Z" fill="#3F3D56"/>
<path d="M273.343 146.399H153.539V237.547H273.343V146.399Z" fill="#F9A826"/>
<path d="M90.4521 131.041C101.119 131.27 109.604 138.999 109.604 138.999C109.604 138.999 100.795 146.358 90.1284 146.129C79.4618 145.9 70.9766 138.171 70.9766 138.171C70.9766 138.171 79.7854 130.812 90.4521 131.041Z" fill="#F9A826"/>
<path d="M36.8254 94.6319C46.4623 99.21 57.5127 96.1055 57.5127 96.1055C57.5127 96.1055 52.9387 85.5784 43.3018 81.0004C33.6649 76.4223 22.6145 79.5267 22.6145 79.5267C22.6145 79.5267 27.1885 90.0537 36.8254 94.6319Z" fill="#F9A826"/>
<path d="M37.8051 90.0823C48.43 89.1114 57.7299 95.8388 57.7299 95.8388C57.7299 95.8388 49.8035 104.14 39.1787 105.111C28.5538 106.082 19.2539 99.3549 19.2539 99.3549C19.2539 99.3549 27.1803 91.0533 37.8051 90.0823Z" fill="#3F3D56"/>
<path d="M76.7525 91.9218C75.7341 102.542 82.4203 111.871 82.4203 111.871C82.4203 111.871 90.7575 103.982 91.7759 93.3623C92.7943 82.7424 86.1082 73.413 86.1082 73.413C86.1082 73.413 77.7709 81.3019 76.7525 91.9218Z" fill="#3F3D56"/>
<path d="M126.79 157.054C121.217 166.151 123.135 177.468 123.135 177.468C123.135 177.468 134.087 174.034 139.66 164.936C145.233 155.839 143.316 144.522 143.316 144.522C143.316 144.522 132.363 147.956 126.79 157.054Z" fill="#3F3D56"/>
<path d="M110.623 255.968L111.435 255.419C108.572 251.265 107.009 246.354 106.945 241.31C106.967 233.931 110.592 227.106 114.097 220.506C114.748 219.281 115.396 218.059 116.02 216.839C118.639 211.863 120.725 206.624 122.246 201.21C127.683 181.006 122.33 157.168 107.927 137.445C96.5005 121.798 79.4676 108.116 55.8552 95.6167L55.3967 96.4829C78.8746 108.911 95.7984 122.499 107.135 138.023C121.365 157.509 126.66 181.035 121.299 200.956C119.797 206.303 117.735 211.477 115.148 216.393C114.526 217.609 113.88 218.825 113.231 220.046C109.67 226.752 105.988 233.685 105.964 241.307C106.029 246.548 107.651 251.651 110.623 255.968Z" fill="#3F3D56"/>
<path d="M9.31149 96.9045C14.4539 96.9045 18.6227 92.7359 18.6227 87.5937C18.6227 82.4514 14.4539 78.2828 9.31149 78.2828C4.16903 78.2828 0.000244141 82.4514 0.000244141 87.5937C0.000244141 92.7359 4.16903 96.9045 9.31149 96.9045Z" fill="#3F3D56"/>
<path d="M140.385 238.73L81.9355 233.86V148.137L140.385 145.215V238.73Z" fill="#F9A826"/>
<path d="M286.497 238.73L344.947 233.86V148.137L286.497 145.215V238.73Z" fill="#F9A826"/>
<path d="M233.758 180.61C232.019 179.108 229.876 178.153 227.596 177.863C225.317 177.573 223.002 177.962 220.943 178.981C219.154 179.847 217.23 180.397 215.255 180.609C215.205 176.33 215.991 172.083 217.567 168.105L217.825 167.438H214.39L214.292 167.798C213.909 169.205 213.607 170.633 213.388 172.074C213.203 171.449 212.962 170.842 212.67 170.259C210.26 165.482 204.693 163.528 204.457 163.448L203.982 163.285L203.83 163.763C203.755 164.001 202.017 169.639 204.426 174.417C206.151 177.837 209.495 179.81 211.342 180.684C209.004 180.534 206.719 179.923 204.619 178.886C203.309 178.211 201.836 177.919 200.368 178.043C198.9 178.167 197.496 178.702 196.318 179.587C189.904 184.46 186.225 191.605 186.225 199.188C186.225 209.15 192.677 218.273 202.661 222.429C203.562 222.803 204.528 222.995 205.503 222.994C206.857 222.994 208.186 222.629 209.35 221.938C210.898 221.038 212.656 220.562 214.446 220.559C216.237 220.555 217.997 221.024 219.548 221.918C220.551 222.509 221.678 222.86 222.84 222.942C224.001 223.024 225.166 222.834 226.242 222.389C236.169 218.216 242.583 209.109 242.583 199.188C242.583 192.087 239.448 185.489 233.758 180.61ZM215.14 168.418H216.401C214.983 172.217 214.26 176.241 214.267 180.297H214.042C213.738 176.304 214.109 172.288 215.14 168.418ZM205.302 173.975C203.472 170.349 204.274 166.026 204.629 164.567C206.012 165.148 209.962 167.067 211.794 170.701C213.623 174.327 212.821 178.649 212.467 180.108C211.083 179.526 207.13 177.602 205.302 173.975ZM225.862 221.486C224.927 221.872 223.914 222.036 222.905 221.965C221.895 221.893 220.916 221.588 220.045 221.073C218.342 220.09 216.41 219.574 214.444 219.579C212.478 219.583 210.548 220.106 208.85 221.096C207.981 221.613 207.003 221.921 205.994 221.996C204.986 222.07 203.974 221.909 203.038 221.525C193.42 217.521 187.205 208.753 187.205 199.188C187.205 191.914 190.743 185.054 196.911 180.367C198.094 179.473 199.538 178.991 201.021 178.995C202.116 178.994 203.196 179.256 204.169 179.757C206.854 181.038 209.788 181.711 212.763 181.729C215.737 181.747 218.679 181.108 221.379 179.859C223.266 178.926 225.386 178.569 227.475 178.836C229.563 179.102 231.527 179.978 233.12 181.355C238.59 186.044 241.602 192.378 241.602 199.188C241.602 208.714 235.424 217.466 225.862 221.486Z" fill="white"/>
<path d="M111 171.349V170.198H111.458V166.614C111.459 166.349 111.388 166.087 111.251 165.86C111.115 165.632 110.918 165.446 110.683 165.322C108.66 164.267 106.486 164.268 104.222 165.327C103.972 165.446 103.761 165.633 103.613 165.867C103.466 166.101 103.388 166.372 103.388 166.649V170.198H103.845V171.24C102.162 171.712 100.68 172.722 99.6267 174.117C98.5733 175.512 98.0066 177.214 98.0135 178.962V186.717L98.8845 187.008L98.0135 187.588V189.919L98.8845 190.21L98.0135 190.79V193.121L98.8845 193.411L98.0135 193.992V211.743C98.0151 213.127 98.5658 214.455 99.5448 215.434C100.524 216.413 101.851 216.963 103.236 216.965H110.935C112.317 216.964 113.641 216.414 114.618 215.437C115.595 214.46 116.144 213.136 116.146 211.755V193.992L115.275 193.411L116.146 193.121V190.79L115.275 190.21L116.146 189.919V187.589L115.275 187.008L116.146 186.718V178.561C116.14 176.975 115.642 175.429 114.72 174.137C113.799 172.845 112.499 171.871 111 171.349ZM104.637 166.215C106.639 165.28 108.468 165.272 110.229 166.191C110.305 166.233 110.368 166.294 110.412 166.368C110.455 166.443 110.478 166.528 110.477 166.614V168.532H104.368V166.649C104.367 166.558 104.392 166.47 104.44 166.393C104.487 166.316 104.556 166.254 104.637 166.215ZM115.166 186.011L113.064 186.712L115.166 188.113V189.213L113.064 189.913L115.166 191.315V192.415L113.064 193.115L115.166 194.516V211.755C115.164 212.876 114.718 213.951 113.925 214.744C113.132 215.538 112.057 215.984 110.935 215.985H103.236C102.111 215.984 101.033 215.536 100.238 214.741C99.4422 213.946 98.9949 212.867 98.9936 211.743V194.516L101.096 193.115L98.9936 192.415V191.315L101.096 189.913L98.9936 189.213V188.113L101.096 186.712L98.9936 186.011V178.962C98.9874 177.369 99.524 175.821 100.515 174.573C101.506 173.325 102.892 172.452 104.446 172.097L104.825 172.01V170.198H110.02V172.075L110.374 172.178C111.753 172.584 112.965 173.425 113.828 174.575C114.692 175.725 115.161 177.123 115.166 178.561V186.011Z" fill="white"/>
<path d="M341.362 184.77L338.895 184.277L339.476 183.115L338.344 182.888L338.539 181.712L337.304 181.505V180.389L336.301 180.103L337.253 178.913H335.601L335.946 178.052L334.725 177.849L335.14 176.396H333.818V175.041H333.328C331.784 175.041 330.923 176.875 330.64 177.609C322.117 179.095 297.369 196.236 294.545 198.208C293.371 197.827 291.631 198.719 291.267 198.917L290.692 199.231L291.522 200.061L291.274 200.802L292.797 201.373L292.464 202.207L293.423 203.007L292.561 203.653L293.858 204.431L293.63 205.568L295.078 205.775V206.914L295.919 207.082L295.5 208.551H296.434V209.713H297.345L297.758 210.951L298.182 210.865C299.168 210.668 300.012 209.304 300.342 208.699C308.551 207.235 333.894 189.405 336.361 187.659C339.241 188.004 340.299 187.234 340.412 187.144L340.881 186.769L339.762 185.837L341.362 184.77ZM336.298 186.663L336.107 186.637L335.949 186.749C335.669 186.948 307.876 206.638 299.953 207.77L299.698 207.806L299.584 208.036C299.28 208.655 298.869 209.216 298.371 209.693L298.051 208.733H297.414V207.571H296.799L297.154 206.33L296.058 206.11V204.926L294.795 204.745L294.955 203.946L294.315 203.562L295.002 203.047L293.638 201.91L294.079 200.808L292.503 200.217L292.644 199.796L292.339 199.491C293.075 199.186 293.966 198.958 294.348 199.187L294.621 199.351L294.882 199.168C295.16 198.973 322.764 179.666 331.071 178.534L331.381 178.491L331.473 178.192C331.616 177.729 332.123 176.558 332.838 176.158V177.376H333.841L333.481 178.635L334.583 178.818L334.153 179.893H335.213L334.616 180.641L336.324 181.128V182.336L337.412 182.517L337.221 183.664L338.025 183.824L337.444 184.986L338.85 185.267L338.126 185.75L339.166 186.617C338.221 186.809 337.249 186.824 336.298 186.663Z" fill="white"/>
<path d="M213.441 279.201C221.29 279.201 227.653 272.838 227.653 264.989C227.653 257.141 221.29 250.778 213.441 250.778C205.592 250.778 199.229 257.141 199.229 264.989C199.229 272.838 205.592 279.201 213.441 279.201Z" fill="#F9A826"/>
<path d="M222.389 263.586H214.845V256.042H212.037V263.586H204.493V266.393H212.037V273.937H214.845V266.393H222.389V263.586Z" fill="white"/>
<path d="M258.265 265.479L250.914 262.049V264.009H233.762V266.95H250.914V268.91L258.265 265.479Z" fill="white"/>
<path d="M168.618 265.479L175.969 262.049V264.009H193.121V266.95H175.969V268.91L168.618 265.479Z" fill="white"/>
<path d="M393.05 378.19H33.8328V379.17H393.05V378.19Z" fill="#3F3D56"/>
<path d="M260.487 78.2827H166.395V79.2627H260.487V78.2827Z" fill="white"/>
<path d="M260.715 345.847H166.623V346.827H260.715V345.847Z" fill="white"/>
<path d="M411.9 249.063L409.45 258.374C409.45 258.374 400.629 277.976 409.45 278.956C418.271 279.936 418.761 253.473 418.761 253.473L411.9 249.063Z" fill="#A0616A"/>
<path d="M427.092 181.927L409.45 251.513C409.45 251.513 416.311 253.473 419.741 255.924L427.092 181.927Z" fill="#D0CDE1"/>
<path d="M482.47 234.852L487.37 310.809C487.37 310.809 499.132 340.701 498.642 369.124C498.642 369.124 494.231 380.395 497.662 382.355C501.092 384.315 503.052 385.785 501.092 387.255C499.132 388.726 497.662 392.156 499.132 393.136C500.602 394.116 501.092 395.586 500.602 395.586H485.9C485.9 395.586 488.841 388.236 484.43 386.275C480.019 384.315 482.47 379.415 482.47 379.415L449.635 283.366L423.662 371.574C423.662 371.574 428.072 374.514 424.642 375.984C421.212 377.455 419.741 374.514 421.212 377.455C422.682 380.395 420.721 381.865 420.721 382.355C420.721 382.845 406.02 380.885 406.02 380.885C406.02 380.885 413.371 374.514 409.94 373.044C406.51 371.574 405.039 370.104 406.02 369.124C407 368.144 410.92 358.833 410.92 358.833C410.92 358.833 412.88 323.55 413.371 322.08C413.861 320.609 413.371 313.749 413.371 310.319C413.371 306.888 412.88 293.167 414.351 289.737C415.821 286.306 417.291 244.163 425.132 239.262C432.973 234.362 482.47 234.852 482.47 234.852Z" fill="#2F2E41"/>
<path d="M420.232 379.905C420.232 379.905 430.033 399.997 423.172 402.447C416.311 404.897 407.49 402.937 405.53 405.877C403.569 408.817 382.006 412.248 381.516 404.897C381.026 397.546 405.04 383.825 405.04 383.825L408.168 378.788L420.232 379.905Z" fill="#2F2E41"/>
<path d="M499.622 394.606C499.622 394.606 509.423 414.698 502.562 417.148C495.701 419.598 486.88 417.638 484.92 420.578C482.96 423.519 461.397 426.949 460.907 419.598C460.417 412.248 484.43 398.526 484.43 398.526L487.558 393.49L499.622 394.606Z" fill="#2F2E41"/>
<path d="M454.291 142.478C463.223 142.478 470.463 135.238 470.463 126.307C470.463 117.376 463.223 110.136 454.291 110.136C445.359 110.136 438.119 117.376 438.119 126.307C438.119 135.238 445.359 142.478 454.291 142.478Z" fill="#A0616A"/>
<path d="M465.318 134.883L463.357 149.094L448.655 160.365L444.735 154.974V136.353L465.318 134.883Z" fill="#A0616A"/>
<path d="M442.284 153.014C442.284 153.014 457.476 154.485 465.318 149.094L481 241.712C481 241.712 425.622 246.123 423.172 243.182V214.27L432.973 167.226L442.284 153.014Z" fill="#3F3D56"/>
<path d="M463.968 144.666L469.238 149.094C469.238 149.094 490.801 152.524 489.331 158.405L483.45 227.991L485.41 251.513C485.41 251.513 468.748 247.103 456.006 251.513C443.265 255.924 453.388 156.737 453.388 156.737C453.388 156.737 465.069 146.118 463.968 144.666Z" fill="#D0CDE1"/>
<path d="M444.735 150.03C444.735 150.03 429.053 161.345 427.092 168.696C425.132 176.046 418.761 253.473 418.761 253.473C418.761 253.473 421.702 252.003 423.172 254.454C424.642 256.904 447.185 153.906 444.735 150.03Z" fill="#D0CDE1"/>
<path d="M487.86 252.493L484.348 263.956C484.348 263.956 483.45 285.326 471.688 282.386C459.927 279.446 475.119 254.454 475.119 254.454L478.549 249.063L487.86 252.493Z" fill="#A0616A"/>
<path d="M438.127 125.602C438.127 125.602 436.376 122.976 437.049 120.148C437.452 118.543 437.61 116.886 437.521 115.233C437.521 115.233 438.935 110.654 440.349 108.096C441.763 105.537 441.089 104.46 445.534 103.652C449.978 102.844 448.16 97.0531 459.876 103.315C460.271 103.867 460.821 104.289 461.456 104.529C462.092 104.769 462.784 104.815 463.445 104.662C465.869 104.19 466.744 107.557 466.744 107.557C466.744 107.557 468.36 106.614 468.966 107.961C469.572 109.308 473.894 107.153 473.894 116.243C473.894 125.333 468.976 133.452 468.976 133.452C468.976 133.452 469.337 118.162 461.324 116.613C453.311 115.065 444.692 110.553 442.604 116.344C441.478 119.594 439.975 122.701 438.127 125.602Z" fill="#2F2E41"/>
<path d="M469.152 129.238C470.025 129.238 470.733 128.294 470.733 127.131C470.733 125.967 470.025 125.023 469.152 125.023C468.279 125.023 467.571 125.967 467.571 127.131C467.571 128.294 468.279 129.238 469.152 129.238Z" fill="#A0616A"/>
<path d="M485.41 154.975C485.41 154.975 493.251 153.014 495.702 166.246C498.152 179.477 501.092 217.21 501.092 217.21L489.331 256.904C489.331 256.904 477.569 250.533 475.119 251.513L484.374 217.053L476.589 181.927C476.589 181.927 483.45 154.975 485.41 154.975Z" fill="#D0CDE1"/>
<path opacity="0.15" d="M474.009 182.597L484.301 216.9L474.009 251.694L479.89 216.9L474.009 182.597Z" fill="black"/>
</svg>
