<svg width="21" height="19" viewBox="0 0 21 19" fill="none" xmlns="http://www.w3.org/2000/svg">
<path d="M14.1328 3.20312C13.9922 3.0625 13.7812 3.0625 13.6406 3.20312L5.97656 10.8672L5.625 14.1367C5.55469 14.5586 5.94141 14.9453 6.36328 14.875L9.63281 14.5234L17.2969 6.85938C17.4375 6.71875 17.4375 6.50781 17.2969 6.36719L14.1328 3.20312ZM19.8281 2.39453L18.1055 0.671875C17.5781 0.144531 16.6992 0.144531 16.1719 0.671875L14.9414 1.90234C14.8008 2.04297 14.8008 2.25391 14.9414 2.39453L18.1055 5.55859C18.2461 5.69922 18.457 5.69922 18.5977 5.55859L19.8281 4.32812C20.3555 3.80078 20.3555 2.92188 19.8281 2.39453ZM13.5 12.4492V16H2.25V4.75H10.3008C10.4414 4.75 10.5469 4.71484 10.6172 4.64453L12.0234 3.23828C12.2695 2.95703 12.0938 2.5 11.707 2.5H1.6875C0.738281 2.5 0 3.27344 0 4.1875V16.5625C0 17.5117 0.738281 18.25 1.6875 18.25H14.0625C14.9766 18.25 15.75 17.5117 15.75 16.5625V11.043C15.75 10.6562 15.293 10.4805 15.0117 10.7266L13.6055 12.1328C13.5352 12.2031 13.5 12.3086 13.5 12.4492Z" fill="black"/>
</svg>
