<svg width="190" height="142" viewBox="0 0 190 142" fill="none" xmlns="http://www.w3.org/2000/svg">
<path d="M80.996 96.1541C80.996 96.1541 106.228 93.1225 115.06 88.3226C123.891 83.5227 189.495 81.249 189.495 96.1541C189.495 111.059 114.05 117.627 114.05 117.627L74.4355 115.354L80.996 96.1541Z" fill="#FBBEBE"/>
<path opacity="0.1" d="M80.996 96.1541C80.996 96.1541 106.228 93.1225 115.06 88.3226C123.891 83.5227 189.495 81.249 189.495 96.1541C189.495 111.059 114.05 117.627 114.05 117.627L74.4355 115.354L80.996 96.1541Z" fill="black"/>
<path d="M88.3134 93.3751L83.0146 108.785L0 109.796V87.0594C0 87.0594 31.7928 79.7332 57.0252 95.3961C57.0252 95.3961 86.7995 91.8593 88.3134 93.3751Z" fill="#F9A826"/>
<path opacity="0.1" d="M88.3134 93.3502L83.0146 108.76L0 109.771V87.0345C0 87.0345 31.7928 79.7083 57.0252 95.3712C57.0252 95.3712 86.7995 91.8344 88.3134 93.3502Z" fill="black"/>
<path d="M183.224 86.9331C183.224 87.7941 181.296 88.4333 181.106 89.2639C180.918 90.0877 182.064 91.3404 181.701 92.1272C181.327 92.9317 180.884 93.7026 180.378 94.4316C179.903 95.1125 178.436 95.013 177.834 95.6516C177.245 96.2315 176.621 96.7747 175.966 97.2782C175.327 97.8098 174.463 97.9213 173.737 98.4106C173.046 98.8759 173.13 100.582 172.366 101.006C171.637 101.411 170.52 101.085 169.729 101.449C168.969 101.799 168.568 103.062 167.756 103.371C166.973 103.669 166.004 103.541 165.176 103.799C164.374 104.048 163.478 104.008 162.638 104.218C161.823 104.422 161.2 105.646 160.351 105.811C159.525 105.972 158.556 105.543 157.702 105.665C156.867 105.784 155.897 104.726 155.038 104.806C154.198 104.885 153.406 105.374 152.545 105.414C151.702 105.452 150.867 105.825 150.007 105.825C149.146 105.825 148.258 106.633 147.414 106.594C146.554 106.555 145.775 105.329 144.934 105.251C144.076 105.171 143.052 106.451 142.217 106.332C141.362 106.21 140.686 104.957 139.859 104.797C139.011 104.632 137.915 105.527 137.099 105.323C136.259 105.112 135.761 103.655 134.959 103.405C134.131 103.147 133.105 103.497 132.322 103.199C131.51 102.89 130.52 102.939 129.76 102.59C128.969 102.226 128.401 101.365 127.671 100.96C126.908 100.536 126.556 99.4856 125.865 99.0203C125.14 98.5309 124.033 98.5934 123.395 98.0618C122.721 97.5005 121.458 97.4713 120.889 96.8675C120.288 96.2288 120.044 95.1565 119.569 94.4755C119.069 93.7583 120.051 92.242 119.702 91.484C119.339 90.6973 117.824 90.3777 117.636 89.5541C117.442 88.6938 117.343 87.815 117.339 86.9331C117.339 86.0721 118.635 85.4141 118.825 84.5835C119.013 83.7597 118.059 82.5765 118.422 81.7898C118.771 81.0316 118.726 79.8663 119.227 79.149C119.702 78.4681 120.887 78.2011 121.489 77.5626C122.057 76.9589 123.076 76.7904 123.75 76.2292C124.388 75.6977 124.307 74.0948 125.032 73.6054C125.723 73.1402 126.686 72.9279 127.45 72.5042C128.179 72.0994 129.212 72.1676 130.003 71.8037C130.763 71.4544 131.953 72.1427 132.765 71.8337C133.548 71.5358 134.183 70.8846 135.011 70.6265C135.813 70.3768 136.189 68.472 137.029 68.2617C137.844 68.0576 138.848 68.3965 139.696 68.2315C140.523 68.0707 141.635 69.5735 142.489 69.4518C143.324 69.3329 143.948 67.3267 144.806 67.2467C145.647 67.1683 146.594 68.2074 147.455 68.1678C148.299 68.129 149.146 68.7379 150.007 68.7379C150.867 68.7379 151.725 67.9023 152.568 67.9411C153.429 67.9806 154.188 69.0848 155.028 69.1632C155.887 69.2432 156.941 67.5636 157.775 67.6826C158.63 67.8043 159.29 69.1027 160.117 69.2634C160.965 69.4284 162.028 68.6224 162.843 68.8266C163.683 69.0369 164.189 70.4169 164.99 70.6667C165.818 70.9247 166.328 71.8983 167.111 72.1962C167.924 72.5052 169.432 71.0595 170.192 71.4089C170.984 71.7728 171.667 72.4026 172.397 72.8074C173.16 73.2311 174.374 73.0181 175.064 73.4833C175.79 73.9727 175.969 75.2863 176.607 75.8179C177.281 76.3792 178.393 76.5482 178.962 77.152C179.563 77.7906 179.647 78.9349 180.122 79.6159C180.622 80.3331 180.606 81.3268 180.955 82.0849C181.318 82.8715 182.285 83.4665 182.473 84.2901C182.663 85.1205 183.224 86.0723 183.224 86.9331Z" fill="#3F3D56"/>
<path d="M92.3508 102.722C92.3508 102.722 120.863 88.0699 139.283 93.6277C157.703 99.1855 183.44 89.5857 186.468 92.8698C189.496 96.154 193.785 131.522 157.45 133.543C121.116 135.564 90.0798 127.48 90.0798 127.48L92.3508 102.722Z" fill="#FBBEBE"/>
<path d="M85.636 101.162C85.636 101.162 96.8924 100.449 96.3878 104.491C95.8832 108.533 95.3785 139.859 92.3506 140.616C89.3227 141.374 65.352 141.374 55.5113 141.374H0V92.9424C0 92.9424 39.3626 90.5962 59.0438 100.449C59.0438 100.449 82.7062 100.107 85.636 101.162Z" fill="#F9A826"/>
<path d="M138.37 25.4073C137.294 25.4682 136.257 25.8278 135.374 26.4458C134.491 27.0639 133.797 27.9159 133.371 28.9065C132.121 31.9314 133.73 35.4846 136.146 37.6904C138.562 39.8962 141.666 41.157 144.485 42.8143C148.272 45.0403 151.676 48.1303 153.571 52.0968C155.466 56.0633 155.667 60.9767 153.44 64.766C151.372 68.2832 147.613 70.3882 144.027 72.3296" stroke="#3F3D56" stroke-miterlimit="10"/>
<path d="M148.463 6.9657C147.387 7.02653 146.35 7.38612 145.467 8.00417C144.584 8.62222 143.891 9.47429 143.464 10.4648C142.214 13.4897 143.824 17.043 146.24 19.2488C148.655 21.4546 151.759 22.7154 154.578 24.3726C158.366 26.5986 161.769 29.6886 163.664 33.6551C165.559 37.6217 165.76 42.535 163.533 46.3244C161.465 49.8416 157.706 51.9466 154.121 53.888" stroke="#3F3D56" stroke-miterlimit="10"/>
<path d="M181.648 11.2072C180.76 10.5961 179.72 10.2446 178.644 10.1922C177.568 10.1397 176.498 10.3884 175.556 10.9104C172.718 12.5362 171.818 16.3322 172.379 19.5571C172.941 22.782 174.624 25.681 175.84 28.7196C177.474 32.801 178.275 37.3302 177.348 41.6281C176.421 45.9259 173.577 49.9346 169.498 51.5657C165.713 53.0796 161.453 52.4399 157.431 51.7775" stroke="#3F3D56" stroke-miterlimit="10"/>
<path d="M152.404 49.3312C155.748 49.3312 158.459 48.0128 158.459 46.3863C158.459 44.7599 155.748 43.4414 152.404 43.4414C149.059 43.4414 146.348 44.7599 146.348 46.3863C146.348 48.0128 149.059 49.3312 152.404 49.3312Z" fill="#57B894"/>
<path d="M151.647 48.826C154.992 48.826 157.703 47.5075 157.703 45.8811C157.703 44.2546 154.992 42.9362 151.647 42.9362C148.303 42.9362 145.591 44.2546 145.591 45.8811C145.591 47.5075 148.303 48.826 151.647 48.826Z" stroke="#3F3D56" stroke-miterlimit="10"/>
<path d="M165.525 46.805C168.869 46.805 171.58 45.4865 171.58 43.8601C171.58 42.2336 168.869 40.9152 165.525 40.9152C162.18 40.9152 159.469 42.2336 159.469 43.8601C159.469 45.4865 162.18 46.805 165.525 46.805Z" fill="#57B894"/>
<path d="M164.767 46.2996C168.112 46.2996 170.823 44.9811 170.823 43.3547C170.823 41.7283 168.112 40.4098 164.767 40.4098C161.423 40.4098 158.712 41.7283 158.712 43.3547C158.712 44.9811 161.423 46.2996 164.767 46.2996Z" stroke="#3F3D56" stroke-miterlimit="10"/>
<path d="M167.543 57.9207C170.888 57.9207 173.599 56.6022 173.599 54.9758C173.599 53.3494 170.888 52.0309 167.543 52.0309C164.199 52.0309 161.488 53.3494 161.488 54.9758C161.488 56.6022 164.199 57.9207 167.543 57.9207Z" fill="#57B894"/>
<path d="M166.786 57.4155C170.131 57.4155 172.842 56.097 172.842 54.4706C172.842 52.8441 170.131 51.5256 166.786 51.5256C163.442 51.5256 160.73 52.8441 160.73 54.4706C160.73 56.097 163.442 57.4155 166.786 57.4155Z" stroke="#3F3D56" stroke-miterlimit="10"/>
<path d="M166.282 30.1315C169.626 30.1315 172.337 28.8131 172.337 27.1866C172.337 25.5602 169.626 24.2417 166.282 24.2417C162.937 24.2417 160.226 25.5602 160.226 27.1866C160.226 28.8131 162.937 30.1315 166.282 30.1315Z" fill="#57B894"/>
<path d="M165.525 29.6263C168.869 29.6263 171.58 28.3078 171.58 26.6814C171.58 25.0549 168.869 23.7365 165.525 23.7365C162.18 23.7365 159.469 25.0549 159.469 26.6814C159.469 28.3078 162.18 29.6263 165.525 29.6263Z" stroke="#3F3D56" stroke-miterlimit="10"/>
<path d="M151.142 28.3631C154.487 28.3631 157.198 27.0446 157.198 25.4182C157.198 23.7918 154.487 22.4733 151.142 22.4733C147.798 22.4733 145.086 23.7918 145.086 25.4182C145.086 27.0446 147.798 28.3631 151.142 28.3631Z" fill="#57B894"/>
<path d="M150.385 27.858C153.73 27.858 156.441 26.5395 156.441 24.9131C156.441 23.2866 153.73 21.9681 150.385 21.9681C147.041 21.9681 144.33 23.2866 144.33 24.9131C144.33 26.5395 147.041 27.858 150.385 27.858Z" stroke="#3F3D56" stroke-miterlimit="10"/>
<path d="M157.955 22.0475C161.299 22.0475 164.011 20.7291 164.011 19.1026C164.011 17.4762 161.299 16.1577 157.955 16.1577C154.61 16.1577 151.899 17.4762 151.899 19.1026C151.899 20.7291 154.61 22.0475 157.955 22.0475Z" fill="#57B894"/>
<path d="M157.198 21.5423C160.542 21.5423 163.254 20.2238 163.254 18.5974C163.254 16.971 160.542 15.6525 157.198 15.6525C153.853 15.6525 151.142 16.971 151.142 18.5974C151.142 20.2238 153.853 21.5423 157.198 21.5423Z" stroke="#3F3D56" stroke-miterlimit="10"/>
<path d="M172.842 23.3106C176.186 23.3106 178.898 21.9921 178.898 20.3657C178.898 18.7393 176.186 17.4208 172.842 17.4208C169.497 17.4208 166.786 18.7393 166.786 20.3657C166.786 21.9921 169.497 23.3106 172.842 23.3106Z" fill="#57B894"/>
<path d="M172.085 22.8054C175.43 22.8054 178.141 21.4869 178.141 19.8604C178.141 18.234 175.43 16.9155 172.085 16.9155C168.741 16.9155 166.029 18.234 166.029 19.8604C166.029 21.4869 168.741 22.8054 172.085 22.8054Z" stroke="#3F3D56" stroke-miterlimit="10"/>
<path d="M183.944 31.6474C187.289 31.6474 190 30.3289 190 28.7025C190 27.0761 187.289 25.7576 183.944 25.7576C180.6 25.7576 177.888 27.0761 177.888 28.7025C177.888 30.3289 180.6 31.6474 183.944 31.6474Z" fill="#57B894"/>
<path d="M183.187 31.142C186.532 31.142 189.243 29.8235 189.243 28.1971C189.243 26.5707 186.532 25.2522 183.187 25.2522C179.843 25.2522 177.132 26.5707 177.132 28.1971C177.132 29.8235 179.843 31.142 183.187 31.142Z" stroke="#3F3D56" stroke-miterlimit="10"/>
<path d="M144.834 16.9948C148.179 16.9948 150.89 15.6763 150.89 14.0499C150.89 12.4235 148.179 11.105 144.834 11.105C141.49 11.105 138.778 12.4235 138.778 14.0499C138.778 15.6763 141.49 16.9948 144.834 16.9948Z" fill="#57B894"/>
<path d="M144.077 16.4897C147.422 16.4897 150.133 15.1712 150.133 13.5448C150.133 11.9183 147.422 10.5999 144.077 10.5999C140.733 10.5999 138.021 11.9183 138.021 13.5448C138.021 15.1712 140.733 16.4897 144.077 16.4897Z" stroke="#3F3D56" stroke-miterlimit="10"/>
<path d="M148.619 7.39508C151.963 7.39508 154.675 6.0766 154.675 4.45016C154.675 2.82373 151.963 1.50525 148.619 1.50525C145.274 1.50525 142.563 2.82373 142.563 4.45016C142.563 6.0766 145.274 7.39508 148.619 7.39508Z" fill="#57B894"/>
<path d="M147.862 6.88983C151.206 6.88983 153.918 5.57135 153.918 3.94492C153.918 2.31848 151.206 1 147.862 1C144.517 1 141.806 2.31848 141.806 3.94492C141.806 5.57135 144.517 6.88983 147.862 6.88983Z" stroke="#3F3D56" stroke-miterlimit="10"/>
<path d="M183.692 14.4687C187.037 14.4687 189.748 13.1502 189.748 11.5238C189.748 9.89734 187.037 8.57886 183.692 8.57886C180.348 8.57886 177.636 9.89734 177.636 11.5238C177.636 13.1502 180.348 14.4687 183.692 14.4687Z" fill="#57B894"/>
<path d="M182.935 13.9633C186.279 13.9633 188.991 12.6448 188.991 11.0184C188.991 9.39197 186.279 8.07349 182.935 8.07349C179.59 8.07349 176.879 9.39197 176.879 11.0184C176.879 12.6448 179.59 13.9633 182.935 13.9633Z" stroke="#3F3D56" stroke-miterlimit="10"/>
<path d="M127.928 37.7104C131.273 37.7104 133.984 36.3919 133.984 34.7655C133.984 33.139 131.273 31.8206 127.928 31.8206C124.584 31.8206 121.873 33.139 121.873 34.7655C121.873 36.3919 124.584 37.7104 127.928 37.7104Z" fill="#57B894"/>
<path d="M127.172 37.2051C130.516 37.2051 133.227 35.8866 133.227 34.2602C133.227 32.6338 130.516 31.3153 127.172 31.3153C123.827 31.3153 121.116 32.6338 121.116 34.2602C121.116 35.8866 123.827 37.2051 127.172 37.2051Z" stroke="#3F3D56" stroke-miterlimit="10"/>
<path d="M148.871 36.1946C152.216 36.1946 154.927 34.8762 154.927 33.2497C154.927 31.6233 152.216 30.3048 148.871 30.3048C145.527 30.3048 142.815 31.6233 142.815 33.2497C142.815 34.8762 145.527 36.1946 148.871 36.1946Z" fill="#57B894"/>
<path d="M148.114 35.6894C151.459 35.6894 154.17 34.3709 154.17 32.7445C154.17 31.118 151.459 29.7996 148.114 29.7996C144.77 29.7996 142.058 31.118 142.058 32.7445C142.058 34.3709 144.77 35.6894 148.114 35.6894Z" stroke="#3F3D56" stroke-miterlimit="10"/>
<path d="M176.375 38.4683C179.719 38.4683 182.431 37.1498 182.431 35.5234C182.431 33.897 179.719 32.5785 176.375 32.5785C173.03 32.5785 170.319 33.897 170.319 35.5234C170.319 37.1498 173.03 38.4683 176.375 38.4683Z" fill="#57B894"/>
<path d="M175.618 37.9631C178.962 37.9631 181.673 36.6446 181.673 35.0182C181.673 33.3917 178.962 32.0732 175.618 32.0732C172.273 32.0732 169.562 33.3917 169.562 35.0182C169.562 36.6446 172.273 37.9631 175.618 37.9631Z" stroke="#3F3D56" stroke-miterlimit="10"/>
<path d="M161.74 39.4788C165.084 39.4788 167.796 38.1603 167.796 36.5339C167.796 34.9075 165.084 33.589 161.74 33.589C158.395 33.589 155.684 34.9075 155.684 36.5339C155.684 38.1603 158.395 39.4788 161.74 39.4788Z" fill="#57B894"/>
<path d="M160.983 38.9736C164.327 38.9736 167.039 37.6551 167.039 36.0287C167.039 34.4022 164.327 33.0837 160.983 33.0837C157.638 33.0837 154.927 34.4022 154.927 36.0287C154.927 37.6551 157.638 38.9736 160.983 38.9736Z" stroke="#3F3D56" stroke-miterlimit="10"/>
<path d="M162.749 14.216C166.094 14.216 168.805 12.8975 168.805 11.2711C168.805 9.64466 166.094 8.32617 162.749 8.32617C159.405 8.32617 156.693 9.64466 156.693 11.2711C156.693 12.8975 159.405 14.216 162.749 14.216Z" fill="#57B894"/>
<path d="M161.992 13.7109C165.337 13.7109 168.048 12.3924 168.048 10.766C168.048 9.13953 165.337 7.82104 161.992 7.82104C158.648 7.82104 155.936 9.13953 155.936 10.766C155.936 12.3924 158.648 13.7109 161.992 13.7109Z" stroke="#3F3D56" stroke-miterlimit="10"/>
<path d="M136.76 29.879C140.104 29.879 142.815 28.5605 142.815 26.9341C142.815 25.3076 140.104 23.9891 136.76 23.9891C133.415 23.9891 130.704 25.3076 130.704 26.9341C130.704 28.5605 133.415 29.879 136.76 29.879Z" fill="#57B894"/>
<path d="M136.003 29.3736C139.347 29.3736 142.059 28.0551 142.059 26.4287C142.059 24.8022 139.347 23.4838 136.003 23.4838C132.658 23.4838 129.947 24.8022 129.947 26.4287C129.947 28.0551 132.658 29.3736 136.003 29.3736Z" stroke="#3F3D56" stroke-miterlimit="10"/>
<path d="M140.292 41.2471C143.637 41.2471 146.348 39.9286 146.348 38.3022C146.348 36.6758 143.637 35.3573 140.292 35.3573C136.948 35.3573 134.236 36.6758 134.236 38.3022C134.236 39.9286 136.948 41.2471 140.292 41.2471Z" fill="#57B894"/>
<path d="M139.535 40.7419C142.88 40.7419 145.591 39.4234 145.591 37.797C145.591 36.1705 142.88 34.8521 139.535 34.8521C136.191 34.8521 133.479 36.1705 133.479 37.797C133.479 39.4234 136.191 40.7419 139.535 40.7419Z" stroke="#3F3D56" stroke-miterlimit="10"/>
<g opacity="0.3">
<path opacity="0.3" d="M140.433 58.4101C141.288 56.8787 141.444 55.3369 140.781 54.9662C140.119 54.5956 138.889 55.5365 138.034 57.0679C137.179 58.5992 137.023 60.141 137.686 60.5117C138.348 60.8823 139.578 59.9414 140.433 58.4101Z" fill="#57B894"/>
<path opacity="0.3" d="M140.034 58.6415C140.888 57.1102 141.044 55.5683 140.382 55.1977C139.72 54.827 138.49 55.768 137.635 57.2993C136.78 58.8306 136.624 60.3725 137.286 60.7431C137.949 61.1138 139.179 60.1728 140.034 58.6415Z" stroke="#3F3D56" stroke-miterlimit="10"/>
</g>
<g opacity="0.3">
<path opacity="0.3" d="M171.999 65.7514C172.505 65.1853 171.857 63.778 170.551 62.6081C169.245 61.4382 167.777 60.9487 167.271 61.5148C166.765 62.0809 167.413 63.4882 168.719 64.6581C170.024 65.828 171.493 66.3175 171.999 65.7514Z" fill="#57B894"/>
<path opacity="0.3" d="M171.86 65.3105C172.366 64.7444 171.718 63.3371 170.412 62.1672C169.107 60.9972 167.638 60.5078 167.132 61.0739C166.626 61.64 167.274 63.0473 168.58 64.2172C169.885 65.3871 171.354 65.8766 171.86 65.3105Z" stroke="#3F3D56" stroke-miterlimit="10"/>
</g>
<g opacity="0.3">
<path opacity="0.3" d="M143.738 49.8358C144.244 49.2697 143.596 47.8623 142.29 46.6924C140.985 45.5225 139.516 45.033 139.01 45.5991C138.504 46.1652 139.152 47.5725 140.458 48.7425C141.763 49.9124 143.232 50.4019 143.738 49.8358Z" fill="#57B894"/>
<path opacity="0.3" d="M143.6 49.395C144.106 48.8289 143.458 47.4215 142.152 46.2516C140.847 45.0817 139.378 44.5922 138.872 45.1583C138.366 45.7244 139.014 47.1317 140.32 48.3017C141.625 49.4716 143.094 49.9611 143.6 49.395Z" stroke="#3F3D56" stroke-miterlimit="10"/>
</g>
</svg>
