<svg width="190" height="138" viewBox="0 0 190 138" fill="none" xmlns="http://www.w3.org/2000/svg">
<path d="M81.2055 129.059C116.723 129.059 145.515 100.168 145.515 64.5296C145.515 28.8909 116.723 0 81.2055 0C45.6885 0 16.8962 28.8909 16.8962 64.5296C16.8962 100.168 45.6885 129.059 81.2055 129.059Z" fill="#F2F2F2"/>
<path d="M25.5168 138C39.6094 138 51.0336 136.166 51.0336 133.903C51.0336 131.641 39.6094 129.807 25.5168 129.807C11.4243 129.807 0 131.641 0 133.903C0 136.166 11.4243 138 25.5168 138Z" fill="#F2F2F2"/>
<path d="M149.997 133.836C171.803 133.836 189.48 130.998 189.48 127.497C189.48 123.996 171.803 121.158 149.997 121.158C128.192 121.158 110.515 123.996 110.515 127.497C110.515 130.998 128.192 133.836 149.997 133.836Z" fill="#F2F2F2"/>
<path d="M141.225 66.5685C141.225 66.5685 141.562 67.6928 139.657 68.7046C137.752 69.7165 137.192 73.5391 139.433 74.6634C141.674 75.7877 142.346 77.2493 141.225 78.2612C140.105 79.2731 138.088 81.9714 140.777 82.6459C143.466 83.3205 143.802 84.6697 143.018 85.2318C142.234 85.794 144.811 84.22 144.811 84.22C144.811 84.22 145.259 86.9183 147.612 86.2437C149.965 85.5691 156.576 72.7521 153.214 70.9532C149.853 69.1544 141.225 66.5685 141.225 66.5685Z" fill="#2F2E41"/>
<path d="M145.286 77.4246C145.286 77.4246 146.449 81.5064 144.415 81.798C143.153 81.9954 141.956 82.4955 140.928 83.2558L144.705 88.2123H151.679L156.037 83.8389C156.037 83.8389 150.226 79.4655 151.388 76.8415C152.551 74.2174 145.286 77.4246 145.286 77.4246Z" fill="#FFB9B9"/>
<path opacity="0.1" d="M145.286 77.4246C145.286 77.4246 146.449 81.5064 144.415 81.798C143.153 81.9954 141.956 82.4955 140.928 83.2558L144.705 88.2123H151.679L156.037 83.8389C156.037 83.8389 150.226 79.4655 151.388 76.8415C152.551 74.2174 145.286 77.4246 145.286 77.4246Z" fill="black"/>
<path d="M147.03 128.156L153.713 130.488L158.362 130.78L158.071 126.698L148.483 123.853L147.03 128.156Z" fill="#FFB9B9"/>
<path d="M155.601 127.281C155.601 127.281 155.601 131.363 156.182 131.363C156.764 131.363 164.609 130.488 166.933 131.363C169.258 132.238 172.745 129.031 171.001 127.281C169.258 125.532 166.414 122.908 164.64 123.491C162.865 124.074 155.601 125.532 155.601 125.532V127.281Z" fill="#575A89"/>
<path d="M134.245 123.491C134.245 123.491 130.758 130.488 133.083 131.072C135.407 131.655 138.022 130.78 138.313 130.488C138.603 130.197 142.671 129.031 143.252 129.614C143.834 130.197 143.834 127.281 143.834 127.281L134.245 123.491Z" fill="#575A89"/>
<path d="M137.151 113.87C137.151 113.87 131.63 121.45 135.698 123.491C139.766 125.532 159.233 125.532 160.686 123.491C162.139 121.45 162.72 115.036 160.686 114.453C158.652 113.87 137.151 113.87 137.151 113.87Z" fill="#2F2E41"/>
<path opacity="0.2" d="M137.151 113.87C137.151 113.87 131.63 121.45 135.698 123.491C139.766 125.532 159.233 125.532 160.686 123.491C162.139 121.45 162.72 115.036 160.686 114.453C158.652 113.87 137.151 113.87 137.151 113.87Z" fill="black"/>
<path d="M147.611 79.4655C151.302 79.4655 154.294 76.4632 154.294 72.7597C154.294 69.0561 151.302 66.0538 147.611 66.0538C143.92 66.0538 140.928 69.0561 140.928 72.7597C140.928 76.4632 143.92 79.4655 147.611 79.4655Z" fill="#FFB9B9"/>
<path d="M137.151 83.2558L142.962 82.0896C142.962 82.0896 144.415 86.7545 149.064 85.8799C153.713 85.0052 154.875 82.0896 154.875 82.0896C154.875 82.0896 158.362 83.5474 158.652 83.5474C158.943 83.5474 162.72 85.0052 162.72 85.8799C162.72 86.7545 158.362 95.5013 158.362 95.5013L158.943 111.245L137.441 110.662L138.894 95.2097L137.151 83.2558Z" fill="#F9A826"/>
<path d="M133.954 90.8363C133.954 90.8363 132.211 106.289 133.373 107.455C134.535 108.621 139.184 111.829 139.184 111.829V108.33L136.86 103.956L139.184 93.7519L133.954 90.8363Z" fill="#FFB9B9"/>
<path d="M164.028 90.399C164.028 90.399 163.011 106.289 163.011 106.872C163.011 107.455 160.396 109.496 159.524 109.496C158.652 109.496 158.071 108.038 158.071 108.038L160.105 105.706L158.652 93.752L164.028 90.399Z" fill="#FFB9B9"/>
<path d="M161.267 112.703C161.267 112.703 174.343 105.414 174.633 112.703C174.924 119.992 167.95 122.908 167.95 122.908C167.95 122.908 149.936 128.328 149.209 126.347C148.483 124.366 147.03 121.159 148.192 120.867C149.354 120.575 150.807 119.992 151.388 120.575C151.969 121.159 159.234 116.202 159.234 116.202L161.267 112.703Z" fill="#2F2E41"/>
<path opacity="0.2" d="M167.369 111.829C167.369 111.829 164.754 112.995 163.882 113.87C163.011 114.744 159.233 116.202 159.233 116.202" stroke="black" stroke-width="2" stroke-miterlimit="10"/>
<path d="M138.894 83.8389L137.151 83.2557C137.151 83.2557 130.758 89.9616 132.792 91.711C134.826 93.4603 135.988 94.0434 136.569 94.6266C137.151 95.2097 140.056 95.5012 140.056 95.5012L138.894 83.8389Z" fill="#F9A826"/>
<path d="M160.105 85.2968L162.72 85.8799C162.72 85.8799 164.754 90.2533 165.335 90.8364C165.916 91.4195 164.463 91.1279 163.592 92.2942C162.72 93.4604 161.848 95.5013 160.105 95.5013C158.362 95.5013 156.037 92.5857 156.037 92.5857L160.105 85.2968Z" fill="#F9A826"/>
<path d="M137.732 115.327C137.732 115.327 126.69 107.455 122.913 113.286C119.136 119.118 139.184 126.99 142.09 128.156C144.996 129.322 147.611 130.488 147.611 130.488C147.611 130.488 150.226 124.074 150.226 122.908C150.226 121.742 148.192 121.742 147.611 121.742C147.03 121.742 144.415 121.159 143.833 120.284C143.252 119.409 137.732 115.327 137.732 115.327Z" fill="#2F2E41"/>
<path opacity="0.2" d="M131.63 113.286C131.63 113.286 134.536 115.619 137.151 116.202C139.766 116.785 140.637 118.243 140.637 118.243" stroke="black" stroke-width="2" stroke-miterlimit="10"/>
<path d="M135.728 102.324L135.96 114.669C135.967 115.076 136.135 115.465 136.427 115.749C136.719 116.033 137.11 116.189 137.517 116.185L160.411 115.927C160.801 115.922 161.175 115.769 161.457 115.499C161.74 115.229 161.909 114.861 161.931 114.47L162.626 102.384C162.638 102.174 162.608 101.963 162.536 101.766C162.464 101.568 162.353 101.387 162.209 101.234C162.065 101.081 161.891 100.959 161.699 100.876C161.506 100.792 161.299 100.749 161.089 100.749H137.267C137.063 100.749 136.86 100.79 136.671 100.87C136.483 100.949 136.312 101.066 136.168 101.212C136.025 101.359 135.912 101.533 135.836 101.724C135.761 101.914 135.724 102.119 135.728 102.324Z" fill="#575A89"/>
<path d="M147.968 64.3358C147.968 64.3358 148.34 65.5813 146.23 66.7023C144.12 67.8232 143.5 72.0579 145.982 73.3034C148.464 74.5489 149.209 76.168 147.968 77.289C146.727 78.4099 144.493 81.3991 147.471 82.1464C150.45 82.8937 150.823 84.3883 149.954 85.0111C149.085 85.6338 151.94 83.8901 151.94 83.8901C151.94 83.8901 152.436 86.8793 155.043 86.132C157.65 85.3847 160.25 71.8006 157.345 68.3019C154.643 65.0487 147.968 64.3358 147.968 64.3358Z" fill="#2F2E41"/>
<path d="M147.175 63.0538C147.176 61.2291 152.616 62.5402 154.949 65.0879C156.564 66.8522 159.017 69.5065 156.961 71.3774C154.906 73.2484 160.485 75.7011 161.982 76.4447C163.478 77.1884 166.433 79.4624 163.765 80.988C161.097 82.5135 161.14 84.0535 162.144 84.4181C163.148 84.7828 159.931 83.876 159.931 83.876C159.931 83.876 160.256 86.8888 157.545 86.8744C154.834 86.86 147.057 71.9107 148.915 67.7555C150.642 63.8918 147.175 63.0538 147.175 63.0538Z" fill="#2F2E41"/>
<path d="M148.354 62.6539C141.078 62.2143 140.348 67.7096 140.348 67.7096C140.398 70.8896 145.431 69.3401 146.829 69.8142C148.516 68.5969 151.766 66.2936 154.091 64.6499C152.403 63.4573 150.415 62.7656 148.354 62.6539Z" fill="#2F2E41"/>
<path d="M146.281 97.7198C146.281 97.7198 139.755 67.0294 98.907 44.766" stroke="#3F3D56" stroke-width="2" stroke-miterlimit="10"/>
<path d="M100.59 44.0966L100.672 44.433L99.0194 44.8351L99.5399 46.4594L99.2112 46.5651L98.5776 44.5867L100.59 44.0966Z" fill="#3F3D56"/>
<path d="M11.8054 129.079C11.8054 132.966 9.50264 134.323 6.66175 134.323C6.59594 134.323 6.53024 134.322 6.46463 134.321C6.33301 134.318 6.20263 134.312 6.07383 134.303C3.50998 134.121 1.51807 132.694 1.51807 129.079C1.51807 125.337 6.28255 120.617 6.64044 120.267L6.64107 120.267C6.65486 120.253 6.66176 120.246 6.66176 120.246C6.66176 120.246 11.8054 125.191 11.8054 129.079Z" fill="#F9A826"/>
<path d="M6.47443 133.728L8.35571 131.09L6.46972 134.018L6.46471 134.321C6.33309 134.318 6.20271 134.312 6.07391 134.303L6.27668 130.414L6.27511 130.384L6.27856 130.378L6.29768 130.011L4.40698 127.076L6.30362 129.735L6.30802 129.813L6.46126 126.875L4.8426 123.842L6.48101 126.359L6.64052 120.267L6.64115 120.246V120.267L6.61452 125.07L8.22597 123.166L6.60793 125.484L6.56531 128.115L8.0699 125.59L6.55904 128.502L6.53523 129.965L8.71956 126.451L6.52708 130.475L6.47443 133.728Z" fill="#3F3D56"/>
<path d="M36.3397 128.071L37.44 127.251C37.44 127.251 38.1683 131.333 37.3556 131.945C36.5429 132.557 33.4952 133.576 33.4952 134.799C33.4952 136.023 26.5871 137.654 26.3839 135.819C26.1807 133.984 26.9935 132.964 26.9935 132.964C26.9935 132.964 30.2443 129.702 30.6507 129.091C31.0571 128.479 32.073 127.256 32.073 127.256L36.3397 128.071Z" fill="#2F2E41"/>
<path d="M20.0852 77.3065C20.0852 77.3065 20.1157 77.4859 20.1685 77.8141C20.2173 78.1057 20.2843 78.5175 20.3656 79.0251C21.219 84.2505 23.7079 99.6329 23.5393 100.141C23.3361 100.752 21.9138 102.995 23.5393 103.606C23.6957 103.666 23.8643 103.857 24.0452 104.159C24.3942 104.809 24.6819 105.49 24.9046 106.194C25.8738 109.015 26.91 113.531 27.5094 116.659C27.7715 118.033 27.9503 119.138 28.0031 119.717C28.0215 119.851 28.0235 119.986 28.0092 120.12C27.806 120.936 29.2283 123.79 29.8378 124.606C30.4474 125.421 31.4633 126.237 31.2601 127.052C31.0569 127.868 36.3396 130.11 36.9491 128.683C37.5586 127.256 37.5586 126.441 37.7618 126.033C37.965 125.625 38.1682 122.771 37.1523 122.363C36.1364 121.955 36.7459 114.82 35.73 113.393C35.3907 112.917 34.8726 111.309 34.3301 109.374C34.1168 108.616 33.9014 107.808 33.6901 106.999C32.8327 103.682 32.0728 100.344 32.0728 100.344L32.276 76.491L21.1011 75.0638L20.8146 75.6979L20.2437 76.9558L20.0852 77.3065Z" fill="#2F2E41"/>
<path d="M19.4756 116.451C19.4756 116.451 17.8501 114.82 17.0374 116.451C16.2247 118.082 15.412 124.402 13.9897 125.829C12.5674 127.256 10.7388 134.392 12.7706 134.799C14.8024 135.207 17.0374 134.188 17.2406 132.965C17.4438 131.741 21.7105 125.421 21.7105 124.81C21.7105 124.198 18.866 121.955 18.866 121.955L19.4756 116.451Z" fill="#2F2E41"/>
<path d="M44.4668 66.0932C44.4668 66.0932 41.8254 89.9466 41.2159 92.1892C40.6064 94.4319 37.3555 102.995 36.3396 104.422C35.3237 105.849 28.8219 117.47 28.0092 118.081C27.1965 118.693 25.5711 120.324 25.5711 120.324C25.5711 120.324 22.5234 123.382 22.117 123.994C21.7107 124.605 18.2566 122.771 18.0534 121.547C17.8502 120.324 18.2566 118.285 18.4598 117.47C18.663 116.654 18.0534 115.431 18.663 114.819C19.2725 114.208 22.3202 111.15 22.3202 109.723C22.3202 108.295 27.6029 99.9365 29.6347 98.1016C31.6665 96.2668 31.2601 93.2086 31.2601 93.2086V80.7722L20.0852 77.3063C20.0852 77.3063 20.6948 67.5203 22.117 67.5203C23.5393 67.5203 42.2318 64.2583 44.4668 66.0932Z" fill="#2F2E41"/>
<path d="M28.0091 32.0461C31.7122 32.0461 34.7141 29.0339 34.7141 25.3182C34.7141 21.6025 31.7122 18.5903 28.0091 18.5903C24.3061 18.5903 21.3042 21.6025 21.3042 25.3182C21.3042 29.0339 24.3061 32.0461 28.0091 32.0461Z" fill="#9F616A"/>
<path d="M30.2441 30.6189C30.2441 30.6189 31.0568 33.6771 32.0727 34.4926C33.0886 35.3081 29.4314 38.774 29.4314 38.774L22.5233 39.1817L21.3042 35.3081C21.3042 35.3081 23.5392 30.8228 22.9296 27.9686C22.3201 25.1143 30.2441 30.6189 30.2441 30.6189Z" fill="#9F616A"/>
<path d="M33.0887 34.0847C33.0887 34.0847 31.2601 34.2886 30.8537 34.9002C30.4474 35.5118 27.6029 37.3467 25.3679 36.939C23.1329 36.5312 21.7106 35.9196 21.3043 36.1235C20.8979 36.3273 20.0852 40.6087 20.0852 40.6087L22.3202 47.1328L21.9138 65.0738L21.3043 69.9668C21.3043 69.9668 20.0852 68.3358 24.9615 69.3552C29.8378 70.3746 36.1364 68.5397 38.1682 68.3358C40.2 68.132 43.654 67.5203 43.8572 66.2971C44.0604 65.0738 43.2477 60.5886 43.2477 60.5886L39.9968 46.9289L37.965 39.5894L33.0887 34.0847Z" fill="#F9A826"/>
<path d="M31.167 33.1645C31.167 33.1645 32.8857 32.2498 33.4952 33.0653C34.1047 33.8808 41.8256 35.1041 41.8256 35.7157C41.8256 36.3273 43.451 52.8413 43.0447 54.2684C42.6383 55.6956 43.8574 57.3266 43.8574 57.3266L45.2796 63.4428C45.2796 63.4428 49.14 75.0637 47.5146 75.4715C45.8892 75.8792 44.4669 75.4715 43.8574 75.4715C43.2478 75.4715 43.451 67.7242 41.8256 65.6855C40.2001 63.6467 37.9652 58.5498 37.5588 57.5304C37.1524 56.5111 32.073 42.4436 32.2761 40.8126C32.4793 39.1816 31.167 33.1645 31.167 33.1645Z" fill="#D0CDE1"/>
<path d="M22.7267 34.0847C22.7267 34.0847 21.1012 34.0847 20.898 34.4925C20.6949 34.9002 18.6631 37.5506 17.8503 38.1622C17.0376 38.7739 14.1931 41.4242 14.1931 42.0359C14.1931 42.6475 20.0853 47.1328 20.0853 47.1328C20.0853 47.1328 22.5235 59.1614 21.3044 63.2389C20.0853 67.3164 18.2567 77.1025 19.0694 77.7141C19.8821 78.3257 21.7108 78.5296 21.7108 77.7141C21.7108 76.8986 22.9298 68.132 23.9457 66.2971C24.9616 64.4622 28.0093 52.8413 26.7903 49.5793C25.5712 46.3173 22.7267 34.0847 22.7267 34.0847Z" fill="#D0CDE1"/>
<path d="M49.5464 54.2686C49.5464 54.2686 49.7495 60.5887 47.5146 63.8507C45.2796 67.1127 43.8573 70.7825 43.8573 70.7825C43.8573 70.7825 40.2001 69.7631 39.5906 68.5399C38.981 67.3166 35.1206 68.336 35.1206 67.9282C35.1206 67.5205 39.7937 65.4817 40.2001 65.074C40.6065 64.6662 42.0287 64.6662 42.8414 63.8507C43.6542 63.0352 43.8573 61.2003 43.8573 61.2003L44.6701 55.8996L49.5464 54.2686Z" fill="#9F616A"/>
<path d="M32.6272 21.1698C33.1431 21.1228 33.675 21.0711 34.1309 20.8244C35.1524 20.2716 35.4232 18.6975 34.6457 17.8331C34.4313 17.6131 34.1914 17.4196 33.9313 17.2567L32.3869 16.2019C31.7038 15.7354 31.0046 15.2612 30.2079 15.0413C29.4874 14.8424 28.7263 14.8628 27.9804 14.9093C26.5324 14.9996 25.0754 15.1862 23.7135 15.6878C22.3515 16.1895 21.081 17.0287 20.2562 18.2263C18.9485 20.1249 18.9306 22.6854 19.6508 24.8772C20.371 27.069 21.7391 28.9776 23.0871 30.8475L23.7866 27.423C23.8489 27.1179 23.9294 26.7837 24.1823 26.6031C24.8106 26.1545 25.5792 27.0757 26.3504 27.0697C26.846 27.0659 27.262 26.6569 27.4498 26.1967C27.6376 25.7366 27.6499 25.227 27.6934 24.7317C27.7854 23.6826 28.1508 22.2228 29.141 21.6442C30.0636 21.1051 31.5902 21.2643 32.6272 21.1698Z" fill="#2F2E41"/>
<path opacity="0.1" d="M32.2512 77.4709C32.2512 77.4709 31.565 97.3881 31.1586 97.9998C30.7523 98.6114 31.1586 77.4083 31.1586 77.4083L32.2512 77.4709Z" fill="black"/>
<path d="M40.2 35.7158H41.8254C41.8254 35.7158 48.7335 45.0941 47.9208 45.7057C47.1081 46.3174 47.9208 47.9484 47.9208 47.9484L49.5462 51.0065C49.5462 51.0065 51.578 52.8414 50.9685 53.2491C50.3589 53.6569 49.5462 55.2879 49.5462 55.2879C49.5462 55.2879 45.4826 54.6763 44.2635 57.1228L41.6283 53.7846L40.2 35.7158Z" fill="#D0CDE1"/>
<path d="M40.7746 38.7324L35.197 41.0435L39.4891 51.473L45.0667 49.1619L40.7746 38.7324Z" fill="#2F2E41"/>
<path d="M40.1208 44.8492C40.7369 44.5939 41.0468 43.9266 40.8131 43.3587C40.5794 42.7908 39.8905 42.5374 39.2744 42.7927C38.6584 43.0479 38.3484 43.7153 38.5821 44.2832C38.8158 44.851 39.5047 45.1045 40.1208 44.8492Z" fill="#F9A826"/>
<path d="M36.1365 52.0259C36.1365 52.0259 21.5076 64.2584 19.0694 60.3848C16.6313 56.5112 21.7107 53.2491 21.7107 53.2491C21.7107 53.2491 26.1807 53.453 31.2602 50.191L36.3397 47.9484C36.3397 47.9484 40.9769 41.3053 42.5571 43.8349C44.1373 46.3645 39.8597 50.7672 36.1365 52.0259Z" fill="#9F616A"/>
<path d="M16.4281 41.2205L14.1931 42.036V48.1522L13.3804 49.3755C13.3804 49.3755 13.5836 51.822 14.1931 52.4336C14.8026 53.0452 16.0217 52.8414 15.6153 54.2685C15.3711 55.1989 15.3022 56.1669 15.4122 57.1228C15.4122 57.1228 19.0694 61.8119 19.2726 61.2003C19.4758 60.5886 22.3203 53.0452 22.7266 53.0452C23.133 53.0452 18.663 41.2205 18.663 41.2205H16.4281Z" fill="#D0CDE1"/>
<path d="M43.1462 72.1075C43.1462 72.1075 45.247 70.0688 44.1966 69.9668C43.1462 69.8649 39.4889 67.8262 38.8794 68.8455C38.2698 69.8649 43.1462 72.1075 43.1462 72.1075Z" fill="#2F2E41"/>
<path d="M83.1021 33.2164C84.7209 33.2164 86.0331 32.5193 86.0331 31.6594C86.0331 30.7995 84.7209 30.1024 83.1021 30.1024C81.4834 30.1024 80.1711 30.7995 80.1711 31.6594C80.1711 32.5193 81.4834 33.2164 83.1021 33.2164Z" fill="#57B894"/>
<path d="M94.309 36.8494C87.6999 34.3447 81.0908 34.3447 74.4817 36.8494V28.7183C80.9468 26.7607 87.8438 26.7607 94.309 28.7183V36.8494Z" stroke="#3F3D56" stroke-width="2" stroke-miterlimit="10"/>
<path d="M91.5503 35.1678C86.7803 33.3601 82.0103 33.3601 77.2402 35.1678V29.2993C81.9064 27.8864 86.8842 27.8864 91.5503 29.2993V35.1678Z" stroke="#3F3D56" stroke-width="2" stroke-miterlimit="10"/>
<path d="M84.1366 32.5244C85.7553 32.5244 87.0675 31.8273 87.0675 30.9674C87.0675 30.1075 85.7553 29.4104 84.1366 29.4104C82.5178 29.4104 81.2056 30.1075 81.2056 30.9674C81.2056 31.8273 82.5178 32.5244 84.1366 32.5244Z" stroke="#3F3D56" stroke-width="2" stroke-miterlimit="10"/>
<path d="M85.2573 42.9674C86.8433 42.6426 87.9901 41.6962 87.8188 40.8537C87.6474 40.0112 86.2227 39.5914 84.6367 39.9163C83.0506 40.2411 81.9038 41.1874 82.0752 42.03C82.2466 42.8725 83.6712 43.2922 85.2573 42.9674Z" fill="#57B894"/>
<path d="M96.9615 44.2783C89.9868 43.1504 83.5112 44.4765 77.5348 48.2568L75.9143 40.29C81.8587 37.0746 88.6164 35.6907 95.3411 36.3114L96.9615 44.2783Z" stroke="#3F3D56" stroke-width="2" stroke-miterlimit="10"/>
<path d="M93.9238 43.1843C88.8898 42.3703 84.2161 43.3274 79.9027 46.0558L78.7332 40.3058C83.0235 37.9852 87.9008 36.9863 92.7542 37.4343L93.9238 43.1843Z" stroke="#3F3D56" stroke-width="2" stroke-miterlimit="10"/>
<path d="M86.1328 42.0818C87.7188 41.757 88.8656 40.8106 88.6943 39.9681C88.5229 39.1255 87.0982 38.7058 85.5122 39.0306C83.9261 39.3555 82.7793 40.3018 82.9507 41.1443C83.1221 41.9869 84.5467 42.4066 86.1328 42.0818Z" stroke="#3F3D56" stroke-width="2" stroke-miterlimit="10"/>
<path d="M87.2629 51.3237C87.3224 50.4659 86.0616 49.679 84.4467 49.5663C82.8319 49.4535 81.4746 50.0575 81.4151 50.9154C81.3556 51.7732 82.6165 52.56 84.2313 52.6728C85.8461 52.7855 87.2034 52.1815 87.2629 51.3237Z" fill="#57B894"/>
<path d="M95.1596 57.0776C88.7397 54.1186 82.1466 53.6583 75.3801 55.6965L75.9427 47.5851C82.5276 46.0826 89.408 46.563 95.7221 48.9662L95.1596 57.0776Z" stroke="#3F3D56" stroke-width="2" stroke-miterlimit="10"/>
<path d="M92.5244 55.2078C87.8909 53.0722 83.1324 52.74 78.2488 54.211L78.6548 48.3567C83.4074 47.2723 88.3732 47.619 92.9304 49.3535L92.5244 55.2078Z" stroke="#3F3D56" stroke-width="2" stroke-miterlimit="10"/>
<path d="M88.3428 50.7053C88.4023 49.8474 87.1414 49.0606 85.5266 48.9479C83.9117 48.8351 82.5544 49.4391 82.4949 50.297C82.4354 51.1548 83.6963 51.9416 85.3111 52.0544C86.926 52.1671 88.2833 51.5631 88.3428 50.7053Z" stroke="#3F3D56" stroke-width="2" stroke-miterlimit="10"/>
<path d="M71.5371 37.0382C71.5371 37.0382 58.8655 35.2987 49.8164 40.62" stroke="#3F3D56" stroke-width="2" stroke-miterlimit="10"/>
<path d="M50.1211 38.8318L50.4503 38.9363L49.9358 40.5623L51.5899 40.9583L51.5094 41.2952L49.4951 40.8123L50.1211 38.8318Z" fill="#3F3D56"/>
</svg>
