<svg width="190" height="128" viewBox="0 0 190 128" fill="none" xmlns="http://www.w3.org/2000/svg">
<path opacity="0.4" d="M6.14289 48.0485C9.53551 48.0485 12.2858 45.2906 12.2858 41.8885C12.2858 38.4864 9.53551 35.7285 6.14289 35.7285C2.75026 35.7285 0 38.4864 0 41.8885C0 45.2906 2.75026 48.0485 6.14289 48.0485Z" fill="#F9A826"/>
<path opacity="0.4" d="M183.254 51.4206C186.646 51.4206 189.397 48.6626 189.397 45.2606C189.397 41.8585 186.646 39.1006 183.254 39.1006C179.861 39.1006 177.111 41.8585 177.111 45.2606C177.111 48.6626 179.861 51.4206 183.254 51.4206Z" fill="#F9A826"/>
<path d="M92.8235 84.7051H7.91113V127.139H92.8235V84.7051Z" fill="#3F3D56"/>
<path d="M186.423 84.9861H101.511V127.139H186.423V84.9861Z" fill="#3F3D56"/>
<path d="M92.8235 41.9902H7.91113V85.8292H92.8235V41.9902Z" fill="#F2F2F2"/>
<path d="M186.423 41.9902H101.511V85.8292H186.423V41.9902Z" fill="#F2F2F2"/>
<path d="M71.9529 3.08873L71.5117 3.12329L73.7241 31.5211L74.1653 31.4866L71.9529 3.08873Z" fill="#3F3D56"/>
<path d="M83.0154 20.6327C83.0154 29.2098 76.1569 37.0503 76.1569 37.0503C74.429 32.0545 73.5321 26.8078 73.502 21.5202C73.502 12.9432 74.6906 5.99011 76.1569 5.99011C77.6231 5.99011 83.0154 12.0557 83.0154 20.6327Z" fill="#3F3D56"/>
<path d="M63.5697 24.5278C66.8517 32.4483 76.1854 37.0495 76.1854 37.0495C75.8694 31.7713 74.69 26.5812 72.6945 21.6867C69.4125 13.7663 65.6542 7.80283 64.3002 8.36703C62.9462 8.93123 60.2877 16.6074 63.5697 24.5278Z" fill="#3F3D56"/>
<path d="M71.7321 5.99011C73.3206 5.99011 74.6083 4.69883 74.6083 3.10596C74.6083 1.51308 73.3206 0.221802 71.7321 0.221802C70.1437 0.221802 68.856 1.51308 68.856 3.10596C68.856 4.69883 70.1437 5.99011 71.7321 5.99011Z" fill="#3F3D56"/>
<path d="M72.8382 2.6623C73.5713 2.6623 74.1656 2.06632 74.1656 1.33115C74.1656 0.595976 73.5713 0 72.8382 0C72.1051 0 71.5107 0.595976 71.5107 1.33115C71.5107 2.06632 72.1051 2.6623 72.8382 2.6623Z" fill="#F9A826"/>
<path d="M133.45 54.5681L133.024 54.6885L140.728 82.1052L141.154 81.9848L133.45 54.5681Z" fill="#3F3D56"/>
<path d="M147.718 69.6058C149.39 78.0175 144.192 87.0509 144.192 87.0509C141.523 82.49 139.621 77.5203 138.561 72.3405C136.89 63.9289 136.7 56.877 138.138 56.5896C139.576 56.3023 146.047 61.1942 147.718 69.6058Z" fill="#3F3D56"/>
<path d="M129.407 77.2366C134.169 84.3612 144.22 87.0445 144.22 87.0445C142.881 81.93 140.713 77.0711 137.802 72.6621C133.04 65.5375 128.192 60.4256 126.974 61.2443C125.756 62.063 124.645 70.1121 129.407 77.2366Z" fill="#3F3D56"/>
<path d="M133.237 57.5127C134.825 57.5127 136.113 56.2214 136.113 54.6285C136.113 53.0357 134.825 51.7444 133.237 51.7444C131.648 51.7444 130.36 53.0357 130.36 54.6285C130.36 56.2214 131.648 57.5127 133.237 57.5127Z" fill="#3F3D56"/>
<path d="M133.976 54.0023C134.709 54.0023 135.303 53.4063 135.303 52.6711C135.303 51.9359 134.709 51.34 133.976 51.34C133.243 51.34 132.648 51.9359 132.648 52.6711C132.648 53.4063 133.243 54.0023 133.976 54.0023Z" fill="#F9A826"/>
<path d="M158.087 55.2639L145.681 80.8881L146.079 81.0819L158.485 55.4578L158.087 55.2639Z" fill="#3F3D56"/>
<path d="M159.187 76.2029C154.864 83.6035 144.994 86.892 144.994 86.892C146.021 81.7056 147.892 76.724 150.531 72.1464C154.855 64.7458 159.385 59.349 160.651 60.0922C161.916 60.8355 163.511 68.8024 159.187 76.2029Z" fill="#3F3D56"/>
<path d="M140.445 69.7071C139.284 78.2048 145.018 86.9061 145.018 86.9061C147.406 82.1917 149.005 77.1156 149.75 71.881C150.911 63.3833 150.674 56.3328 149.221 56.1333C147.769 55.9337 141.605 61.2094 140.445 69.7071Z" fill="#3F3D56"/>
<path d="M158.285 58.245C159.874 58.245 161.161 56.9537 161.161 55.3608C161.161 53.768 159.874 52.4767 158.285 52.4767C156.697 52.4767 155.409 53.768 155.409 55.3608C155.409 56.9537 156.697 58.245 158.285 58.245Z" fill="#3F3D56"/>
<path d="M160.135 55.7213C160.868 55.7213 161.462 55.1253 161.462 54.3901C161.462 53.6549 160.868 53.059 160.135 53.059C159.401 53.059 158.807 53.6549 158.807 54.3901C158.807 55.1253 159.401 55.7213 160.135 55.7213Z" fill="#F9A826"/>
<path d="M78.4117 38.858C78.4117 38.858 76.1336 32.3855 74.4883 34.4161C72.8431 36.4467 77.0195 39.8733 77.0195 39.8733L78.4117 38.858Z" fill="#A0616A"/>
<path d="M89.169 32.5123L87.7985 33.0216C87.7985 33.0216 87.144 35.939 87.3971 36.4466C87.6502 36.9543 87.7768 36.5735 87.3971 37.5888C87.0175 38.6041 85.8784 41.2693 85.7518 41.65C85.6253 42.0307 78.4114 39.2387 78.4114 37.8426C78.4114 37.8426 76.8927 39.6194 76.1333 40.0001C76.1333 40.0001 84.4862 46.0919 85.6253 46.8534C86.7643 47.6149 87.3971 47.2341 88.4096 46.3457C89.4221 45.4574 93.7251 38.0965 93.7251 38.0965L89.169 32.5123Z" fill="#575A89"/>
<path d="M85.4992 77.5664C85.4992 77.5664 85.6258 78.9624 85.8789 79.0893C86.132 79.2163 88.0304 82.3891 85.8789 83.0236C83.7274 83.6582 82.4618 83.4043 81.9556 83.6582C81.4493 83.912 72.5901 84.4196 72.4636 83.0236C72.337 81.6276 76.7666 81.3737 76.7666 81.3737C76.7666 81.3737 80.8165 78.7086 81.4493 77.3126C82.0821 75.9165 85.4992 77.5664 85.4992 77.5664Z" fill="#2F2E41"/>
<path d="M111.191 80.1044C111.191 80.1044 114.228 85.3078 113.469 85.9423C112.709 86.5769 105.314 88.8894 104.23 88.9882C102.838 89.1151 101.825 87.9729 102.964 87.3384C104.103 86.7038 106.508 84.0386 106.508 83.1503V80.8659L111.191 80.1044Z" fill="#2F2E41"/>
<path d="M114.101 46.0922C114.101 46.0922 116.759 49.3919 112.583 54.7222L105.622 63.606C105.622 63.606 109.925 70.4593 110.051 74.0128C110.178 77.5664 111.064 76.8049 111.317 78.3278C111.57 79.8508 112.709 79.0893 111.823 80.2315C110.937 81.3737 107.647 82.389 106.634 81.5006C106.286 81.1812 106.014 80.787 105.839 80.3475C105.663 79.9081 105.589 79.4346 105.622 78.9624C105.622 78.4547 103.85 75.5358 103.723 74.6474C103.597 73.759 98.914 66.525 98.914 66.525C98.914 66.525 97.3953 62.21 99.1672 59.7987C100.939 57.3873 102.11 53.9674 102.11 53.9674C102.11 53.9674 96.8891 60.3063 93.2189 61.8293C93.2189 61.8293 91.8267 62.0831 92.0798 62.7176C92.3329 63.3522 92.0798 63.7329 91.7001 64.3675C91.3205 65.0021 88.6627 72.363 87.7768 74.2667C86.8909 76.1703 87.2706 77.3125 86.2581 77.9471C85.2456 78.5817 80.6895 78.074 80.6895 77.4395C80.6895 76.8049 81.3223 75.155 81.7019 74.2667C82.0816 73.3783 85.119 63.0984 84.8659 61.3216C84.6128 59.5449 84.9925 57.1335 86.8909 56.1182C88.7893 55.1029 98.4078 46.8537 98.9141 46.8537C99.4203 46.8537 114.101 46.0922 114.101 46.0922Z" fill="#2F2E41"/>
<path d="M88.6617 26.1668C91.5974 26.1668 93.9772 23.7804 93.9772 20.8365C93.9772 17.8927 91.5974 15.5062 88.6617 15.5062C85.726 15.5062 83.3462 17.8927 83.3462 20.8365C83.3462 23.7804 85.726 26.1668 88.6617 26.1668Z" fill="#A0616A"/>
<path d="M92.9656 21.3441C92.9656 21.3441 94.6109 24.2631 96.6358 24.6438C98.6608 25.0246 91.3203 30.8625 91.3203 30.8625C91.3203 30.8625 89.5485 25.2784 88.0297 25.0246C86.511 24.7707 92.9656 21.3441 92.9656 21.3441Z" fill="#A0616A"/>
<path d="M87.7769 33.2738C87.7769 34.9237 92.7127 39.6194 92.7127 39.6194L97.3954 43.5537C97.3954 43.5537 97.522 44.9497 98.0282 45.0766C98.5344 45.2035 99.1672 45.2035 98.661 45.965C98.1547 46.7265 96.8892 48.3763 98.0282 48.6302C98.3716 48.6825 98.7176 48.7156 99.0647 48.7291C99.3685 48.7469 99.7253 48.7634 100.127 48.7786C101.063 48.8116 102.235 48.8332 103.504 48.8243C103.865 48.8231 104.232 48.8188 104.605 48.8116C109.391 48.7165 114.934 48.1644 114.481 46.3457C113.722 43.2999 114.228 42.2846 112.583 40.6347C110.937 38.9848 108.28 33.2738 108.28 33.2738C108.28 33.2738 102.964 24.263 98.5344 24.263L97.6143 24.0206C97.1868 23.9077 96.7347 23.9325 96.322 24.0915C95.9093 24.2504 95.5569 24.5356 95.3148 24.9065C94.4263 26.2632 93.0253 28.3014 92.2064 28.9588C90.9408 29.9741 90.7434 29.2456 90.7434 29.2456C90.7434 29.2456 87.7769 31.6239 87.7769 33.2738Z" fill="#575A89"/>
<path d="M99.0404 52.5645C99.0404 52.5645 95.3702 58.2755 97.6483 59.2908C99.9263 60.3061 101.192 53.3259 101.192 53.3259L99.0404 52.5645Z" fill="#A0616A"/>
<path d="M92.1375 20.2343C91.9335 20.2085 91.869 19.9504 91.8346 19.7471C91.6508 18.6584 90.8417 17.626 89.7546 17.4503C89.3391 17.3949 88.9166 17.429 88.5153 17.5504C87.9404 17.7086 87.4008 17.975 86.9251 18.3353C86.6924 18.5487 86.4232 18.7182 86.1305 18.8357C85.931 18.8944 85.0841 19.272 84.8862 19.3359C84.4512 19.4763 84.0912 19.933 83.6431 19.8426C83.2144 19.7561 83.0516 19.237 82.9827 18.804C82.8258 17.8175 83.3888 16.3456 83.9487 15.5194C84.3735 14.8923 85.0924 14.5315 85.8112 14.2967C86.6533 14.0404 87.5185 13.868 88.3943 13.782C89.5767 13.642 90.8012 13.5677 91.9343 13.9342C93.0674 14.3006 94.0991 15.1971 94.3106 16.372C94.3547 16.6167 94.3629 16.8674 94.4169 17.1101C94.5486 17.7023 94.9393 18.2 95.1672 18.762C95.3317 19.1747 95.408 19.6174 95.3913 20.0615C95.3747 20.5057 95.2654 20.9414 95.0705 21.3406C94.7549 21.977 94.2061 22.5885 94.3245 23.2893L93.3479 22.5171C93.2067 22.4366 93.0974 22.3101 93.0381 22.1586C92.9787 22.0071 92.973 21.8398 93.0219 21.6845L93.1639 20.4582C93.213 20.2361 93.1908 20.004 93.1005 19.7952C92.6664 19.0348 92.4776 20.2774 92.1375 20.2343Z" fill="#2F2E41"/>
<path opacity="0.1" d="M101.319 43.8074L100.126 48.7786C101.329 48.8217 102.92 48.8446 104.605 48.8116C105.031 47.5323 105.437 46.1985 105.748 44.9496C106.887 40.3808 104.989 33.4007 103.976 30.1009C102.964 26.8012 100.433 25.9128 100.433 25.9128C99.395 26.2788 98.4148 26.7916 97.5218 27.4358C95.8765 28.578 101.319 43.8074 101.319 43.8074Z" fill="black"/>
<path opacity="0.1" d="M100.306 43.5537L99.0644 48.7292C99.3681 48.7469 99.725 48.7634 100.126 48.7787C101.063 48.8117 102.235 48.8332 103.504 48.8244C103.961 47.4651 104.403 46.031 104.736 44.6959C105.875 40.1271 103.976 33.1469 102.964 29.8472C101.951 26.5475 99.7364 30.1645 99.7364 30.1645C99.7364 30.1645 100.622 28.007 98.9771 29.1492C97.3318 30.2914 100.306 43.5537 100.306 43.5537Z" fill="black"/>
<path d="M99.9258 25.6592C99.9258 25.6592 102.457 26.5476 103.47 29.8473C104.482 33.147 106.38 40.1272 105.241 44.696C104.102 49.2648 101.698 54.9759 101.698 54.9759C101.698 54.9759 99.293 53.1991 98.4071 53.5798L100.812 43.5538C100.812 43.5538 95.3697 28.3243 97.015 27.1821C97.9079 26.538 98.8881 26.0251 99.9258 25.6592Z" fill="#575A89"/>
<path d="M89.1918 86.5769C85.5477 85.9579 82.0432 85.4262 78.6783 84.9819L80.0085 82.3956C79.56 82.2394 77.5892 83.7205 77.5892 83.7205L79.3349 76.213C77.079 76.4858 75.932 84.1514 75.932 84.1514L73.4115 81.5597L74.6317 84.4735C65.7798 83.4004 56.8738 82.8383 47.9576 82.7901L49.0961 80.5764C48.6476 80.4202 46.6768 81.9013 46.6768 81.9013L48.4225 74.3938C46.1666 74.6667 45.0195 82.3323 45.0195 82.3323L42.499 79.7406L43.7915 82.8267C38.6658 82.9116 33.5477 83.2602 28.4576 83.8712C29.6092 80.4227 33.5213 77.143 33.5213 77.143C30.5337 78.034 28.9665 79.5272 28.1476 80.9192C28.0744 73.8039 29.2543 66.7315 31.6328 60.0275C31.6328 60.0275 25.4576 73.5028 26.2455 82.548L26.3398 84.1542C21.1045 84.9059 19.0449 86.672 19.0449 86.672L89.1918 86.5769Z" fill="#3F3D56"/>
</svg>
