<svg width="525" height="354" viewBox="0 0 525 354" fill="none" xmlns="http://www.w3.org/2000/svg">
<path d="M304.001 353.908H0V2.1712L304.001 96.6191V353.908Z" fill="#F2F2F2"/>
<path d="M267.158 229.606H28.2993V340.881H267.158V229.606Z" fill="#3F3D56"/>
<path d="M215.428 208.789C233.772 208.789 248.643 193.92 248.643 175.577C248.643 157.235 233.772 142.365 215.428 142.365C197.084 142.365 182.213 157.235 182.213 175.577C182.213 193.92 197.084 208.789 215.428 208.789Z" fill="#F9A826"/>
<path d="M215.127 235.639L215.4 175.394" stroke="#3F3D56" stroke-width="2" stroke-miterlimit="10"/>
<path d="M215.399 183.914C220.105 183.914 223.92 180.099 223.92 175.394C223.92 170.689 220.105 166.875 215.399 166.875C210.694 166.875 206.879 170.689 206.879 175.394C206.879 180.099 210.694 183.914 215.399 183.914Z" fill="#3F3D56"/>
<path d="M215.231 212.524C215.231 212.524 214.133 186.342 189.167 189.272L215.231 212.524Z" fill="#3F3D56"/>
<path d="M76.2846 142.109C94.6289 142.109 109.5 127.24 109.5 108.898C109.5 90.5552 94.6289 75.6857 76.2846 75.6857C57.9403 75.6857 43.0693 90.5552 43.0693 108.898C43.0693 127.24 57.9403 142.109 76.2846 142.109Z" fill="#F9A826"/>
<path d="M74.4038 231.507L76.3154 108.861" stroke="#3F3D56" stroke-width="2" stroke-miterlimit="10"/>
<path d="M76.3153 117.38C81.021 117.38 84.8357 113.566 84.8357 108.861C84.8357 104.156 81.021 100.341 76.3153 100.341C71.6096 100.341 67.7949 104.156 67.7949 108.861C67.7949 113.566 71.6096 117.38 76.3153 117.38Z" fill="#3F3D56"/>
<path d="M75.7752 143.553C75.7752 143.553 74.9662 117.361 49.9692 120.014L75.7752 143.553Z" fill="#3F3D56"/>
<path d="M74.4398 229.166C74.4398 229.166 80.701 178.919 49.0957 175.992" stroke="#3F3D56" stroke-width="2" stroke-miterlimit="10"/>
<path d="M49.0961 184.512C53.8017 184.512 57.6164 180.698 57.6164 175.993C57.6164 171.287 53.8017 167.473 49.0961 167.473C44.3904 167.473 40.5757 171.287 40.5757 175.993C40.5757 180.698 44.3904 184.512 49.0961 184.512Z" fill="#3F3D56"/>
<path d="M147.714 68.3777C166.058 68.3777 180.929 53.5082 180.929 35.1658C180.929 16.8234 166.058 1.95389 147.714 1.95389C129.37 1.95389 114.499 16.8234 114.499 35.1658C114.499 53.5082 129.37 68.3777 147.714 68.3777Z" fill="#F9A826"/>
<path d="M147.734 236.237V35.2877" stroke="#3F3D56" stroke-width="2" stroke-miterlimit="10"/>
<path d="M147.735 43.7121C152.44 43.7121 156.255 39.8978 156.255 35.1926C156.255 30.4874 152.44 26.6731 147.735 26.6731C143.029 26.6731 139.214 30.4874 139.214 35.1926C139.214 39.8978 143.029 43.7121 147.735 43.7121Z" fill="#3F3D56"/>
<path d="M121.565 189.1C126.271 189.1 130.086 185.285 130.086 180.58C130.086 175.875 126.271 172.061 121.565 172.061C116.86 172.061 113.045 175.875 113.045 180.58C113.045 185.285 116.86 189.1 121.565 189.1Z" fill="#3F3D56"/>
<path d="M147.735 78.7106C147.735 78.7106 146.517 52.534 121.565 55.5767L147.735 78.7106Z" fill="#3F3D56"/>
<path d="M147.735 152.918C147.735 152.918 146.517 126.742 121.565 129.784L147.735 152.918Z" fill="#3F3D56"/>
<path d="M147.735 233.895C147.735 233.895 153.212 183.015 121.565 180.58" stroke="#3F3D56" stroke-width="2" stroke-miterlimit="10"/>
<path d="M174.427 109.184C179.133 109.184 182.947 105.369 182.947 100.664C182.947 95.959 179.133 92.1447 174.427 92.1447C169.721 92.1447 165.907 95.959 165.907 100.664C165.907 105.369 169.721 109.184 174.427 109.184Z" fill="#3F3D56"/>
<path d="M148.257 151.265C148.257 151.265 142.779 103.098 174.426 100.664" stroke="#3F3D56" stroke-width="2" stroke-miterlimit="10"/>
<path d="M218.773 81.4206C216.411 81.4206 214.102 80.7202 212.138 79.408C210.174 78.0959 208.643 76.2308 207.739 74.0488C206.835 71.8667 206.599 69.4656 207.06 67.1492C207.52 64.8327 208.658 62.7049 210.328 61.0348C211.998 59.3648 214.126 58.2274 216.443 57.7667C218.76 57.3059 221.161 57.5424 223.343 58.4462C225.526 59.3501 227.391 60.8806 228.703 62.8444C230.015 64.8082 230.716 67.1171 230.716 69.4789C230.712 72.6449 229.453 75.6803 227.214 77.919C224.975 80.1577 221.939 81.417 218.773 81.4206ZM218.773 58.6228C216.626 58.6228 214.527 59.2595 212.741 60.4524C210.956 61.6453 209.564 63.3408 208.742 65.3245C207.92 67.3081 207.705 69.4909 208.124 71.5968C208.543 73.7027 209.577 75.6371 211.096 77.1553C212.614 78.6736 214.549 79.7075 216.655 80.1264C218.761 80.5453 220.944 80.3303 222.928 79.5086C224.912 78.6869 226.607 77.2955 227.8 75.5102C228.993 73.7249 229.63 71.626 229.63 69.4789C229.627 66.6007 228.482 63.8413 226.447 61.8061C224.411 59.7709 221.652 58.6261 218.773 58.6228Z" fill="#3F3D56"/>
<path d="M30.9429 23.8834C28.5808 23.8834 26.2718 23.183 24.3078 21.8709C22.3438 20.5587 20.813 18.6937 19.9091 16.5116C19.0052 14.3295 18.7687 11.9285 19.2295 9.61199C19.6903 7.29553 20.8278 5.16772 22.498 3.49765C24.1683 1.82757 26.2963 0.690234 28.613 0.229461C30.9297 -0.231312 33.331 0.00517568 35.5133 0.909014C37.6956 1.81285 39.5608 3.34345 40.8731 5.30725C42.1854 7.27105 42.8858 9.57986 42.8858 11.9417C42.8823 15.1077 41.6229 18.1431 39.3839 20.3818C37.1449 22.6205 34.1093 23.8798 30.9429 23.8834ZM30.9429 1.08561C28.7956 1.08561 26.6964 1.72231 24.911 2.91519C23.1255 4.10808 21.7339 5.80357 20.9122 7.78726C20.0904 9.77095 19.8754 11.9537 20.2943 14.0596C20.7133 16.1655 21.7473 18.0999 23.2657 19.6181C24.7841 21.1364 26.7187 22.1703 28.8248 22.5892C30.9309 23.0081 33.1139 22.7931 35.0978 21.9714C37.0817 21.1497 38.7773 19.7583 39.9704 17.973C41.1634 16.1877 41.8001 14.0888 41.8001 11.9417C41.7968 9.0635 40.6519 6.30412 38.6165 4.26893C36.5811 2.23373 33.8214 1.08891 30.9429 1.08561Z" fill="#3F3D56"/>
<path d="M304.002 200.838C301.639 200.838 299.33 200.137 297.366 198.825C295.402 197.513 293.872 195.648 292.968 193.466C292.064 191.284 291.827 188.883 292.288 186.566C292.749 184.25 293.886 182.122 295.557 180.452C297.227 178.782 299.355 177.644 301.672 177.184C303.988 176.723 306.39 176.959 308.572 177.863C310.754 178.767 312.619 180.298 313.932 182.261C315.244 184.225 315.944 186.534 315.944 188.896C315.941 192.062 314.681 195.097 312.442 197.336C310.204 199.575 307.168 200.834 304.002 200.838ZM304.002 178.04C301.854 178.04 299.755 178.677 297.97 179.869C296.184 181.062 294.793 182.758 293.971 184.741C293.149 186.725 292.934 188.908 293.353 191.014C293.772 193.12 294.806 195.054 296.324 196.572C297.843 198.091 299.777 199.124 301.883 199.543C303.989 199.962 306.172 199.747 308.156 198.926C310.14 198.104 311.836 196.712 313.029 194.927C314.222 193.142 314.859 191.043 314.859 188.896C314.855 186.018 313.71 183.258 311.675 181.223C309.64 179.188 306.88 178.043 304.002 178.04Z" fill="#3F3D56"/>
<path d="M253.516 107.475C257.413 107.475 260.573 104.316 260.573 100.419C260.573 96.5217 257.413 93.3624 253.516 93.3624C249.618 93.3624 246.458 96.5217 246.458 100.419C246.458 104.316 249.618 107.475 253.516 107.475Z" fill="#3F3D56"/>
<path d="M308.887 236.12C312.784 236.12 315.944 232.961 315.944 229.063C315.944 225.166 312.784 222.007 308.887 222.007C304.989 222.007 301.83 225.166 301.83 229.063C301.83 232.961 304.989 236.12 308.887 236.12Z" fill="#3F3D56"/>
<path d="M304.001 353.908V229.606H253.516C253.516 287.764 206.364 334.91 148.201 334.91C90.037 334.91 42.8859 287.764 42.8859 229.606H0V353.908H304.001Z" fill="#3F3D56"/>
<path d="M148.201 334.91C206.365 334.91 253.516 287.764 253.516 229.606H42.8862C42.8862 287.764 90.0373 334.91 148.201 334.91Z" fill="#F9A826"/>
<path d="M447.198 273.876C499.1 247.625 519.892 184.274 493.638 132.378L305.686 227.44C331.94 279.337 395.297 300.126 447.198 273.876Z" fill="#3F3D56"/>
<path d="M451.005 77.8941C451.355 77.6566 451.693 77.4029 452.022 77.1378C451.337 79.1882 450.233 81.0737 448.78 82.6746C448.441 83.0489 448.078 83.3992 447.705 83.738C447.698 83.6522 447.689 83.5663 447.685 83.4806C447.641 82.6501 447.702 81.7763 447.713 80.9211C449.008 80.15 450.129 79.1194 451.005 77.8941Z" fill="url(#paint0_linear)"/>
<path d="M456.099 47.6098C456.889 46.2784 457.345 44.7753 457.427 43.2294C457.509 41.6834 457.215 40.1406 456.57 38.733C455.926 37.3254 454.949 36.095 453.725 35.1471C452.501 34.1993 451.065 33.5621 449.541 33.2903C448.017 33.0185 446.45 33.1201 444.973 33.5865C443.497 34.0528 442.155 34.8699 441.064 35.9679C439.972 37.0659 439.163 38.412 438.706 39.8911C438.248 41.3701 438.156 42.9379 438.437 44.4604C435.698 45.7648 433.405 47.8501 431.848 50.454C430.291 53.0579 429.539 56.064 429.686 59.0943C428.378 61.103 427.556 63.3894 427.287 65.7716C427.018 68.1537 427.309 70.5658 428.136 72.8158C428.964 75.0658 430.305 77.0916 432.053 78.7319C433.802 80.3722 435.909 81.5817 438.207 82.2641C440.506 82.9465 442.932 83.083 445.292 82.6628C447.653 82.2425 449.882 81.2771 451.804 79.8433C453.725 78.4095 455.285 76.547 456.36 74.4041C457.435 72.2611 457.994 69.8969 457.994 67.4996C457.994 67.254 457.987 67.0102 457.976 66.7675C459.886 63.836 460.741 60.3415 460.4 56.8593C460.059 53.3771 458.542 50.1148 456.099 47.6098Z" fill="#2F2E41"/>
<g opacity="0.1">
<path opacity="0.1" d="M438.31 42.0286C438.353 42.0076 438.394 41.9835 438.437 41.9628C438.407 41.797 438.386 41.6283 438.363 41.46C438.359 41.4952 438.352 41.5297 438.348 41.565C438.329 41.7203 438.321 41.8742 438.31 42.0286Z" fill="black"/>
<path opacity="0.1" d="M460.362 57.708C460.082 60.0497 459.265 62.2952 457.976 64.2699C457.987 64.5127 457.994 64.7565 457.994 65.0021C457.995 68.9791 456.457 72.8022 453.702 75.6707C450.947 78.5393 447.189 80.2309 443.214 80.3913C439.24 80.5517 435.358 79.1685 432.381 76.5314C429.403 73.8942 427.562 70.2076 427.242 66.2434C427.208 66.6581 427.188 67.0763 427.188 67.4997C427.188 71.5844 428.811 75.5019 431.699 78.3903C434.588 81.2787 438.506 82.9013 442.591 82.9013C446.676 82.9013 450.594 81.2787 453.483 78.3903C456.371 75.5019 457.994 71.5844 457.994 67.4997C457.994 67.2541 457.987 67.0103 457.976 66.7675C459.843 63.9057 460.703 60.5027 460.418 57.0973C460.402 57.3006 460.387 57.5037 460.362 57.708Z" fill="black"/>
<path opacity="0.1" d="M457.363 41.4495C457.197 42.744 456.766 43.9906 456.099 45.1123C456.368 45.3888 456.623 45.6787 456.871 45.9743C457.396 44.5275 457.565 42.9754 457.363 41.4495H457.363Z" fill="black"/>
</g>
<path d="M394.028 212.852C394.101 213.729 394.339 214.583 394.728 215.372C394.926 215.765 395.214 216.105 395.569 216.365C395.924 216.625 396.336 216.797 396.77 216.867C397.568 216.872 398.351 216.645 399.023 216.214C400.394 215.498 401.817 214.666 402.533 213.294C403.226 211.966 403.127 210.382 403.009 208.889L402.089 197.144C399.87 197.083 397.641 197.084 395.425 197.205C393.229 197.325 392.844 197.842 393.15 199.985C393.758 204.25 393.462 208.583 394.028 212.852Z" fill="#FBBEBE"/>
<path d="M459.112 220.79L464.391 229.317C464.618 229.813 465.03 230.201 465.539 230.396C465.918 230.451 466.304 230.384 466.642 230.205C468.403 229.436 469.75 227.975 471.043 226.554C471.92 225.59 472.827 224.573 473.156 223.312C473.327 222.628 473.319 221.912 473.134 221.231C472.95 220.551 472.594 219.929 472.102 219.425C471.485 218.889 470.819 218.413 470.111 218.003C465.939 215.189 464.055 209.843 459.936 206.951C459.698 206.753 459.409 206.629 459.102 206.592C458.796 206.61 458.5 206.709 458.244 206.879C456.367 207.908 454.49 208.937 452.613 209.966C450.175 211.3 450.948 211.456 452.799 212.893C455.527 215.009 457.231 217.968 459.112 220.79Z" fill="#FBBEBE"/>
<path d="M405.486 206.06C404.712 205.816 403.846 205.597 403.117 205.952C402.776 206.16 402.488 206.444 402.274 206.781C402.06 207.119 401.926 207.501 401.883 207.898C401.736 208.681 401.753 209.495 401.536 210.262C401.169 211.555 400.183 212.566 399.233 213.517C398.85 213.975 398.351 214.323 397.788 214.523C397.027 214.718 396.217 214.362 395.443 214.497C394.992 214.613 394.582 214.85 394.255 215.182C393.929 215.514 393.7 215.929 393.593 216.382C393.392 217.291 393.362 218.228 393.503 219.148L394.102 225.694C394.208 226.491 394.216 227.299 394.127 228.099C393.906 229.538 393.069 230.8 392.605 232.18C392.141 233.56 392.167 235.322 393.329 236.2C393.734 236.47 394.201 236.634 394.687 236.677C395.172 236.72 395.661 236.64 396.107 236.444C396.997 236.043 397.783 235.446 398.409 234.697C401.964 230.82 403.551 225.57 406.317 221.095C407.023 220.06 407.654 218.976 408.206 217.852C408.586 216.983 408.827 216.061 409.134 215.163C409.558 213.964 410.067 212.797 410.657 211.671C410.986 211.026 412.245 209.474 411.98 208.754C411.529 207.526 406.683 206.437 405.486 206.06Z" fill="#2F2E41"/>
<path d="M469.592 224.115C468.793 225.615 467.457 226.759 465.852 227.32C465.386 227.446 464.953 227.67 464.581 227.978C464.337 228.276 464.186 228.639 464.146 229.022C464.107 229.405 464.181 229.792 464.359 230.134C464.726 230.81 465.204 231.42 465.773 231.939C468.965 235.316 471.075 239.569 471.835 244.153C472.024 245.31 472.147 246.539 472.839 247.485C474.192 249.332 477.07 249.211 479.103 248.158C479.724 247.874 480.263 247.437 480.67 246.888C481.009 246.293 481.224 245.636 481.303 244.956C481.67 243.271 481.873 241.554 481.908 239.83C481.869 236.576 480.646 233.465 480.062 230.263C479.234 225.719 479.649 220.825 477.532 216.719C477.322 216.237 476.989 215.818 476.566 215.504C476.037 215.226 475.443 215.093 474.845 215.118C472.933 215.04 471.02 215.023 469.106 215.068C468.569 215.08 467.942 215.148 467.664 215.606C467.38 216.076 467.629 216.675 467.878 217.163C469.063 219.481 470.983 221.334 469.592 224.115Z" fill="#2F2E41"/>
<path d="M424.176 142.668C423.641 143.109 423.278 143.725 423.152 144.406C423.025 145.088 423.142 145.792 423.483 146.396C423.907 147.098 424.667 147.752 424.501 148.555C424.328 149.389 423.302 149.672 422.461 149.806C415.048 150.985 407.834 153.155 400.647 155.319L393.108 157.589C390.934 158.243 388.722 158.915 386.844 160.19C385.12 161.364 383.756 162.994 382.904 164.897C382.042 166.829 381.746 168.957 381.438 171.051C380.306 178.754 378.86 186.534 375.422 193.52L393.707 199.515C395.48 200.166 397.317 200.628 399.186 200.893C400.969 201.041 402.763 200.955 404.522 200.635C404.409 196.553 404.34 192.347 404.226 188.265C404.214 186.975 404.13 185.687 403.975 184.407C403.701 182.451 403.094 180.547 402.905 178.581C403.748 177.885 404.974 178.058 406.067 178.09C408.562 178.163 410.997 177.296 413.215 176.153C415.434 175.01 417.497 173.586 419.703 172.42C423.378 170.476 427.558 169.169 430.364 166.101C428.935 171.547 425.558 176.293 424.905 181.885C424.245 187.536 426.545 193.066 428.797 198.29L435.99 214.983C436.784 216.826 437.842 218.898 439.8 219.337C441.021 219.611 442.279 219.153 443.412 218.623C450.033 215.523 455.329 209.694 462.399 207.83C461.872 204.329 459.106 201.436 457.539 198.261C456.218 195.584 455.787 192.569 454.906 189.717C454.026 186.864 452.513 183.973 449.853 182.617C448.59 181.974 446.889 181.413 446.771 180.001C446.763 179.547 446.859 179.098 447.052 178.687C447.999 176.304 449.47 174.163 451.355 172.424C451.598 172.237 451.792 171.994 451.92 171.716C451.99 171.441 452.005 171.155 451.962 170.874C451.829 168.601 453.046 166.475 454.404 164.647C455.762 162.82 457.331 161.08 458.096 158.936C459.412 155.249 458.106 151.197 456.805 147.505C456.279 146.013 455.726 144.475 454.645 143.319C452.951 141.506 450.312 140.984 447.846 140.713C439.871 139.839 430.513 137.749 424.176 142.668Z" fill="#2F2E41"/>
<g opacity="0.1">
<path opacity="0.1" d="M423.345 143.77C423.613 143.716 423.862 143.59 424.065 143.407C424.268 143.224 424.418 142.989 424.5 142.728C424.521 142.625 424.527 142.521 424.519 142.417C424.404 142.5 424.288 142.58 424.175 142.668C423.809 142.959 423.523 143.338 423.345 143.77Z" fill="black"/>
</g>
<path d="M436.777 84.8865C436.872 86.7077 436.322 88.6568 434.922 89.8254C434.473 90.2003 433.951 90.4844 433.519 90.8788C433.135 91.2732 432.841 91.7466 432.659 92.2659C432.476 92.7853 432.409 93.3382 432.462 93.8862C432.515 94.4341 432.686 94.964 432.964 95.439C433.243 95.914 433.621 96.3227 434.073 96.6366C435.527 97.5236 437.376 97.2843 439.054 96.9932C441.292 96.6804 443.486 96.108 445.592 95.2875C447.709 94.4558 449.512 92.9796 450.744 91.0675C448.917 90.0489 447.922 87.9091 447.811 85.8203C447.7 83.7285 448.274 81.3549 446.949 79.7323C445.673 78.1697 443.272 78.1811 441.327 78.7175C440.351 78.9867 439.406 79.3591 438.429 79.6225C437.933 79.756 436.297 79.7595 435.974 80.1243C435.385 80.7874 436.722 83.8328 436.777 84.8865Z" fill="#FBBEBE"/>
<path opacity="0.1" d="M436.777 84.8865C436.872 86.7077 436.322 88.6568 434.922 89.8254C434.473 90.2003 433.951 90.4844 433.519 90.8788C433.135 91.2732 432.841 91.7466 432.659 92.2659C432.476 92.7853 432.409 93.3382 432.462 93.8862C432.515 94.4341 432.686 94.964 432.964 95.439C433.243 95.914 433.621 96.3227 434.073 96.6366C435.527 97.5236 437.376 97.2843 439.054 96.9932C441.292 96.6804 443.486 96.108 445.592 95.2875C447.709 94.4558 449.512 92.9796 450.744 91.0675C448.917 90.0489 447.922 87.9091 447.811 85.8203C447.7 83.7285 448.274 81.3549 446.949 79.7323C445.673 78.1697 443.272 78.1811 441.327 78.7175C440.351 78.9867 439.406 79.3591 438.429 79.6225C437.933 79.756 436.297 79.7595 435.974 80.1243C435.385 80.7874 436.722 83.8328 436.777 84.8865Z" fill="black"/>
<path d="M442.383 84.7744C448.361 84.7744 453.207 79.9289 453.207 73.9516C453.207 67.9744 448.361 63.1288 442.383 63.1288C436.405 63.1288 431.559 67.9744 431.559 73.9516C431.559 79.9289 436.405 84.7744 442.383 84.7744Z" fill="#FBBEBE"/>
<path d="M408.204 156.986C408.01 157.841 407.665 158.655 407.185 159.389C405.923 161.631 405.467 164.238 405.893 166.775C406.122 168.033 406.656 169.216 407.45 170.219C408.243 171.222 409.271 172.014 410.443 172.526C411.456 172.924 412.711 173.03 413.547 172.331C412.101 170.451 412.024 167.883 412.111 165.512C412.086 165.069 412.191 164.629 412.414 164.246C412.474 164.155 412.551 164.077 412.642 164.016C412.733 163.956 412.835 163.916 412.942 163.897C413.049 163.878 413.159 163.881 413.265 163.906C413.371 163.931 413.47 163.978 413.557 164.043C413.521 165.536 413.809 167.019 414.403 168.389C414.632 168.916 415.023 169.498 415.597 169.483C416.422 169.461 416.644 168.345 416.613 167.521C416.486 164.165 416.321 160.669 414.703 157.725C414.11 156.647 413.321 155.636 413.096 154.427C413.085 154.008 412.94 153.603 412.682 153.273C412.503 153.132 412.295 153.035 412.073 152.989C411.141 152.726 408.936 151.906 408.167 152.779C407.342 153.714 408.353 155.867 408.204 156.986Z" fill="#FBBEBE"/>
<path d="M424.278 99.4825C423.037 99.3428 422.057 100.479 421.377 101.527C418.843 105.433 417.02 109.756 415.99 114.297C415.466 116.615 415.136 119.022 414.036 121.129C413.771 121.566 413.557 122.032 413.4 122.518C413.306 123.261 413.273 124.01 413.301 124.758C413.186 126.111 412.387 127.312 412.119 128.643C411.959 129.435 411.991 130.256 411.849 131.053C411.6 132.447 410.833 133.688 410.343 135.017C409.48 137.357 409.487 139.926 408.852 142.339C408.775 142.736 408.603 143.109 408.351 143.427C407.92 143.9 407.232 144.015 406.668 144.318C406.225 144.589 405.845 144.952 405.553 145.383C405.262 145.813 405.066 146.3 404.978 146.813C404.81 147.837 404.791 148.881 404.921 149.911L405.418 156.312C405.931 156.097 406.266 155.517 406.694 155.162C407.476 154.511 408.625 154.657 409.627 154.838L411.086 155.103C412.578 155.373 414.201 155.718 415.158 156.894C415.918 155.705 415.484 153.952 416.653 153.16C417.033 152.903 417.504 152.816 417.905 152.592C418.282 152.348 418.595 152.016 418.817 151.625C419.039 151.234 419.163 150.795 419.179 150.346C419.202 149.448 419.078 148.552 418.812 147.694C420.686 146.903 421.848 145.006 422.581 143.109C423.388 140.813 423.972 138.444 424.324 136.036C426.017 126.522 427.564 116.94 427.718 107.278C427.825 105.662 427.646 104.04 427.191 102.485C426.657 100.96 425.885 99.6631 424.278 99.4825Z" fill="#D0CDE1"/>
<path d="M451.567 89.1211C449.78 90.9948 447.497 92.3209 444.984 92.9442C442.484 93.559 439.932 93.935 437.361 94.0671C436.57 94.1995 435.759 94.1295 435.003 93.8635C434.276 93.5342 433.724 92.6737 434.02 91.9327C434.163 91.7035 434.26 91.4483 434.304 91.1818C434.292 90.5226 433.321 90.468 432.691 90.6628C428.525 91.9513 424.529 94.5031 422.606 98.4174C421.519 100.628 421.161 103.115 420.817 105.554C419.911 111.97 419.007 118.525 420.221 124.89C420.869 128.284 422.114 131.592 422.192 135.046C422.236 136.981 421.909 138.91 421.924 140.846C421.867 141.524 422.048 142.201 422.437 142.759C422.737 143.107 423.189 143.327 423.398 143.736C423.748 144.42 423.281 145.359 423.741 145.974C424.308 146.732 425.491 146.188 426.272 145.653C430.2 142.986 434.943 141.792 439.666 142.282C445.339 142.891 450.976 145.914 456.477 144.403C456.194 143.99 455.95 143.552 455.747 143.094C453.004 134.08 453.19 124.004 457.295 115.523C458.698 112.626 460.559 109.865 461.097 106.691C461.313 105.206 461.331 103.7 461.148 102.211C460.858 99.3293 460.172 96.4243 458.606 93.9885C457.04 91.5527 454.449 89.4064 451.567 89.1211Z" fill="#D0CDE1"/>
<path d="M425.38 159.771C424.94 160.948 424.728 162.199 424.757 163.455C424.716 164.657 424.776 165.86 424.936 167.052C425.028 168.071 425.391 169.046 425.988 169.877C426.293 170.286 426.713 170.595 427.193 170.766C427.674 170.937 428.195 170.962 428.69 170.838C429.079 170.676 429.428 170.429 429.71 170.116C429.992 169.802 430.2 169.43 430.32 169.025C430.553 168.217 430.724 167.392 430.832 166.557C431.306 164.101 432.596 161.795 432.619 159.293C432.637 158.996 432.59 158.699 432.481 158.423C432.012 157.394 429.713 156.24 428.589 156.413C427.184 156.63 425.89 158.584 425.38 159.771Z" fill="#FBBEBE"/>
<path opacity="0.1" d="M456.617 98.2585C456.402 100.41 458.484 102.032 459.307 104.032C459.644 104.966 459.835 105.945 459.875 106.937C460.454 113.817 460.004 120.738 459.555 127.628C459.473 129.922 459.189 132.204 458.705 134.448C457.543 139.156 454.685 143.238 451.884 147.197C450.922 148.784 449.449 149.998 447.708 150.641L438.097 155.296C436.893 155.828 435.749 156.486 434.683 157.259C433.447 158.228 432.475 159.493 431.857 160.938C429.993 159.985 428.057 159.13 426.192 158.177C425.756 157.954 425.268 157.663 425.193 157.179C425.092 156.529 425.771 156.071 426.238 155.608C427.112 154.743 427.382 153.461 427.856 152.326C429.402 148.617 433.292 146.243 434.696 142.478C435.235 141.031 435.4 139.395 436.356 138.183C436.903 137.575 437.518 137.032 438.189 136.564C439.671 135.307 441.032 133.914 442.254 132.403C442.804 131.834 443.253 131.176 443.584 130.457C444.004 129.388 443.878 128.197 443.9 127.049C443.972 123.29 445.671 119.785 446.712 116.173C447.691 112.772 448.1 109.203 449.386 105.905C450.671 102.607 453.189 99.1452 456.617 98.2585Z" fill="black"/>
<path d="M457.865 98.2585C457.651 100.41 459.733 102.032 460.556 104.032C460.893 104.966 461.084 105.945 461.124 106.937C461.702 113.817 461.253 120.738 460.804 127.628C460.722 129.922 460.437 132.204 459.954 134.448C458.792 139.156 455.934 143.238 453.133 147.197C452.17 148.784 450.698 149.998 448.956 150.641L439.346 155.296C438.142 155.828 436.997 156.486 435.932 157.259C434.696 158.228 433.724 159.493 433.106 160.938C431.242 159.985 429.306 159.13 427.441 158.177C427.005 157.954 426.517 157.663 426.442 157.179C426.34 156.529 427.019 156.071 427.487 155.608C428.361 154.743 428.631 153.461 429.104 152.326C430.651 148.617 434.541 146.243 435.944 142.478C436.484 141.031 436.648 139.395 437.605 138.183C438.152 137.575 438.767 137.032 439.438 136.564C440.92 135.307 442.281 133.914 443.503 132.403C444.053 131.834 444.502 131.176 444.833 130.457C445.253 129.388 445.127 128.197 445.149 127.049C445.22 123.29 446.92 119.785 447.96 116.173C448.94 112.772 449.349 109.203 450.634 105.905C451.92 102.607 454.438 99.1452 457.865 98.2585Z" fill="#D0CDE1"/>
<path d="M447.75 57.2205C444.415 56.8129 441.039 57.5118 438.14 59.2099C438.567 59.2259 438.996 59.2551 439.428 59.3072C442.631 59.694 445.632 61.0766 448.007 63.2601C450.381 65.4437 452.011 68.3178 452.664 71.4768C453.318 74.6359 452.963 77.9204 451.649 80.8669C450.336 83.8134 448.13 86.273 445.343 87.8987C449.314 88.0436 453.187 86.6485 456.153 84.005C459.119 81.3616 460.948 77.6743 461.259 73.7137C461.57 69.7531 460.338 65.8256 457.82 62.752C455.303 59.6784 451.695 57.6965 447.75 57.2205Z" fill="#2F2E41"/>
<path d="M452.489 65.7825C452.863 66.6294 453.066 67.5419 453.087 68.4675C453.108 69.3932 452.946 70.3139 452.611 71.1768C452.538 70.9538 452.453 70.7345 452.358 70.5201C450.454 66.2841 444.589 64.5307 439.258 66.6038C436.118 67.8251 433.864 70.1021 432.931 72.6329C431.574 68.5381 434.331 63.8332 439.389 61.8662C444.72 59.7931 450.585 61.5465 452.489 65.7825Z" fill="#2F2E41"/>
<g opacity="0.1">
<path opacity="0.1" d="M452.518 70.8408C452.272 67.8678 451.169 65.0301 449.341 62.6717C447.514 60.3133 445.042 58.5355 442.225 57.5539C440.791 57.907 439.415 58.4648 438.14 59.21C438.567 59.2259 438.996 59.2551 439.428 59.3073C442.52 59.6812 445.426 60.9835 447.763 63.0425C450.1 65.1015 451.758 67.8205 452.518 70.8408Z" fill="black"/>
<path opacity="0.1" d="M455.016 59.6018C454.77 56.6288 453.666 53.7911 451.839 51.4327C450.012 49.0743 447.54 47.2965 444.723 46.3148C443.289 46.668 441.913 47.2257 440.637 47.9709C441.065 47.9869 441.494 48.016 441.926 48.0682C445.018 48.4421 447.924 49.7444 450.261 51.8035C452.598 53.8625 454.256 56.5815 455.016 59.6018Z" fill="black"/>
<path opacity="0.1" d="M455.08 42.8148C454.931 41.0206 454.265 39.308 453.162 37.8847C452.06 36.4613 450.568 35.3884 448.867 34.796C448.002 35.0091 447.172 35.3457 446.402 35.7954C446.66 35.8051 446.919 35.8227 447.179 35.8542C449.046 36.0798 450.8 36.8658 452.21 38.1084C453.62 39.3511 454.621 40.992 455.08 42.8148Z" fill="black"/>
<path opacity="0.1" d="M460.84 68.7541C461.14 72.4475 460.099 76.1252 457.907 79.1135C455.716 82.1018 452.521 84.2007 448.908 85.0257C447.869 86.1546 446.667 87.1228 445.343 87.8987C447.731 87.986 450.107 87.5163 452.282 86.527C454.457 85.5376 456.372 84.0556 457.876 82.1983C459.379 80.341 460.43 78.1593 460.944 75.8259C461.459 73.4925 461.423 71.0713 460.84 68.754V68.7541Z" fill="black"/>
</g>
<path d="M412.929 167.438L410.937 107.226" stroke="#F9A826" stroke-width="2" stroke-miterlimit="10"/>
<path d="M410.938 115.746C415.643 115.746 419.458 111.931 419.458 107.226C419.458 102.521 415.643 98.7066 410.938 98.7066C406.232 98.7066 402.417 102.521 402.417 107.226C402.417 111.931 406.232 115.746 410.938 115.746Z" fill="#F9A826"/>
<path d="M412.165 144.336C412.165 144.336 410.083 118.214 385.245 122.08L412.165 144.336Z" fill="#F9A826"/>
<defs>
<linearGradient id="paint0_linear" x1="449.846" y1="83.738" x2="449.846" y2="77.1378" gradientUnits="userSpaceOnUse">
<stop stop-color="#808080" stop-opacity="0.25"/>
<stop offset="0.53514" stop-color="#808080" stop-opacity="0.12"/>
<stop offset="1" stop-color="#808080" stop-opacity="0.1"/>
</linearGradient>
</defs>
</svg>
